<svg width="580" height="180" viewBox="0 0 580 180" fill="none" xmlns="http://www.w3.org/2000/svg">
<path d="M425.076 171.754C417.942 171.574 406.664 171.334 399.426 171.264C406.695 154.614 425.668 150.204 442.574 146.584C447.891 139.444 412.137 153.704 409.935 155.484C414.679 148.501 419.831 141.783 425.367 135.364C443.719 129.34 462.414 124.332 481.361 120.364C482.742 120.094 482.16 118.034 480.779 118.364C463.094 122.027 445.624 126.59 428.441 132.034C458.38 101.034 464.278 103.534 505.557 95.5439C506.71 95.3539 506.221 93.6639 505.069 93.8539C490.355 96.0443 475.809 99.1746 461.526 103.224C481.672 85.6239 486.865 82.6739 514.28 79.9839C518.953 74.8939 489.793 82.2439 487.332 82.7339C498.672 72.9339 510.718 64.4939 526.191 62.6739C529.722 58.6739 512.016 64.9039 510.334 65.1039C516.814 60.2939 523.346 55.5439 529.888 50.7939C533.46 43.0139 500.084 71.7239 497.353 72.8639C497.55 70.6739 511.185 49.4239 504.975 52.7639C496.938 71.7639 495.359 76.0239 477.518 88.0839C483.365 50.6039 478.038 55.8239 476.137 89.1639C468.764 94.9739 461.453 100.884 454.132 106.774C453.623 104.204 464.423 70.3339 458.66 76.3139C456.583 87.1939 453.468 98.0739 451.567 108.874C446.011 113.434 440.456 118.014 435.201 122.874C435.066 120.224 445.347 82.0339 439.21 88.6239C437.621 100.974 434.381 113.164 432.532 125.404C426.189 131.436 420.394 137.98 415.211 144.964C415.73 142.424 419.51 110.284 414.795 115.904C415.74 132.814 414.847 149.904 402.334 162.804C402.334 160.644 404.65 135.944 400.631 140.924C400.631 150.924 402.957 162.814 396.56 171.224L371.45 170.864C408.648 97.7139 459.781 42.7639 547.293 31.0139C533.377 62.0139 519.348 101.194 495.598 128.664C478.463 131.554 467.497 137.524 453.956 146.484C452.253 147.644 428.181 166.044 425.076 171.754ZM578.363 147.144C509.534 126.294 485.245 117.404 428.669 171.804C433.793 171.884 438.929 171.931 444.08 171.944C464.309 159.944 474.434 164.394 486.958 143.134C493.075 141.004 479.398 155.954 478.328 157.424C487.82 154.493 497.592 152.483 507.499 151.424C523.2 137.044 542.121 129.424 511.767 150.974C520.075 150.194 528.382 149.764 536.752 149.244C537.957 148.044 553.243 140.444 549.785 145.414C546.778 146.31 543.879 147.51 541.135 148.994C546.462 148.824 551.935 148.444 557.189 149.484C560.678 153.004 547.168 150.124 545.34 150.764C540.865 150.834 536.503 151.104 532.069 151.324C535.88 153.014 540.044 154.324 543.388 156.804C545.652 161.314 529.192 151.874 527.261 151.614C516.437 152.249 505.677 153.653 495.068 155.814C497.936 156.67 500.716 157.774 503.376 159.114C506.429 163.884 491.88 156.694 489.814 156.984C476.708 159.544 460.186 166.304 447.517 171.984C479.606 170.984 512.94 173.624 544.676 167.424C557.698 164.314 570.367 158.264 579.07 148.494C579.16 148.405 579.227 148.297 579.266 148.179C579.305 148.06 579.315 147.935 579.295 147.812C579.275 147.689 579.225 147.572 579.15 147.471C579.075 147.37 578.976 147.288 578.862 147.23C578.709 147.152 578.535 147.122 578.363 147.144Z" fill="#F1EAF4"/>
<rect x="183.489" y="25.0139" width="203.538" height="106" fill="white"/>
<rect x="182.45" y="27.0139" width="202.5" height="5" rx="2.5" fill="#FFC800"/>
<path d="M239.514 56.8474L223.595 46.5204" stroke="#FFC800" stroke-width="4" stroke-linecap="round"/>
<path d="M239.514 55.7368L223.595 65.6149" stroke="#FFC800" stroke-width="4" stroke-linecap="round"/>
<rect x="183.489" y="131.014" width="206.654" height="14" fill="#C7A9CD"/>
<path d="M74.6936 74.88C74.4843 74.7146 74.2365 74.6006 73.9713 74.5478C72.5409 67.8979 71.4042 61.1909 70.5076 54.4644C70.1171 51.5241 69.7489 48.5548 69.4947 45.5905L69.7309 45.651C85.4674 47.8495 99.9948 55.034 111.018 66.0697C114.436 72.8973 117.726 79.7993 120.871 86.6749C109.451 80.8862 93.1602 73.0409 80.9379 76.046C80.5749 76.1359 80.2582 76.3496 80.0465 76.6474C78.268 76.0085 76.4971 75.4299 74.6936 74.88ZM107.168 58.5023C96.6252 38.187 84.9367 18.8022 72.7726 2.86013L72.5722 2.92137C68.5733 15.7588 68.1979 29.3464 69.2315 42.816C69.5187 42.6745 69.8445 42.6224 70.1638 42.6669C83.7762 44.5673 96.5804 50.0467 107.168 58.5023ZM92.2872 133.416C80.7984 116.661 73.8874 97.3842 72.1946 77.3726C70.6575 76.9044 69.1195 76.4563 67.5697 76.0376C67.0355 75.9039 66.5432 75.7621 65.9774 75.6371C65.8746 75.6135 65.7754 75.5781 65.6809 75.5339C57.6526 73.4977 49.4958 71.9645 41.2617 70.9442C44.7224 86.4211 51.9562 100.883 62.3659 113.137C72.2467 120.029 82.3294 126.83 92.2872 133.416ZM97.9546 14.1504L96.948 13.4554C94.1844 11.6718 83.564 5.24764 76.9631 3.27502C82.5523 10.7889 88.0478 18.9593 93.3141 27.5802C93.4253 22.7633 95.0578 18.0933 97.9941 14.1922L97.9546 14.1504ZM165.652 171.835C165.654 171.895 165.652 171.955 165.644 172.015L166.297 172.044C172.693 171.985 179.081 171.216 185.469 170.886C185.737 170.879 186.001 170.936 186.241 171.051C184.658 163.081 183.7 155.008 183.376 146.899C178.45 149.251 174.236 152.784 171.139 157.159C168.042 161.534 166.166 166.602 165.692 171.877L165.652 171.835ZM153.14 158.621C155.976 162.656 159.22 166.41 162.826 169.829C163.611 164.324 165.803 159.093 169.206 154.605C172.609 150.118 177.117 146.515 182.323 144.12C182.613 143.989 182.939 143.947 183.254 144.001C182.615 132.07 182.196 120.099 179.327 108.501C178.122 103.727 176.645 99.0198 174.904 94.4014C166.368 102.757 159.96 112.905 156.184 124.048C152.407 135.191 151.366 147.025 153.14 158.621ZM133.658 108.11C133.661 108.147 133.66 108.184 133.653 108.22C135.04 111.565 136.382 114.87 137.683 118.138C137.815 118.328 137.9 118.544 137.933 118.77C142.211 129.589 145.993 139.926 149.192 149.387C148.96 138.762 150.956 128.202 155.062 118.338C159.167 108.473 165.297 99.5083 173.085 91.9788C173.306 91.7743 173.59 91.6437 173.893 91.604C169.808 81.1669 164.139 71.3702 157.072 62.5332C142.418 74.4806 133.897 91.0429 133.616 108.108L133.658 108.11ZM97.6968 34.6705C97.7405 34.7775 97.7695 34.8899 97.7848 35.0047C103.263 44.4257 108.554 54.2689 113.577 64.2805L113.905 64.6052C114.049 64.7586 114.159 64.9388 114.229 65.1346C114.298 65.3305 114.325 65.5379 114.308 65.7442L114.678 66.5012C112.967 53.9932 114.984 41.2746 120.495 29.829C114.08 25.0416 107.429 20.404 100.575 15.8875C98.5166 18.5436 97.1761 21.6506 96.6737 24.9292C96.1713 28.2077 96.5229 31.5552 97.6968 34.6705ZM122.055 81.6718C122.107 81.8052 122.14 81.9448 122.15 82.0864C125.233 88.7291 128.172 95.3654 130.958 101.915C132.943 86.1758 141.5 71.2769 155.063 60.1923C153.19 58.0276 151.221 55.9287 149.123 53.9243C140.869 46.0488 132.144 38.645 122.993 31.7509C119.341 39.579 117.375 48.0387 117.214 56.6189C117.053 65.1991 118.7 73.7217 122.055 81.6718ZM37.9855 70.5396C26.9344 69.2418 15.7501 68.5588 4.62948 68.0688C18.5076 80.9731 35.6147 94.18 53.8753 107.177C46.1764 96.0649 40.7808 83.6241 37.9855 70.5396ZM77.4961 161.164C88.9612 165.546 100.976 168.455 113.23 169.815C123.46 170.975 133.75 171.573 144.051 171.604C139.484 168.4 134.667 165.184 129.679 161.861C110.741 156.352 91.5096 156.125 77.4961 161.164ZM122.142 156.854L109.038 148.208L96.7214 140.078C82.2097 135.694 62.2727 136.317 46.0656 141.58C51.5663 146.626 57.6307 151.07 64.1479 154.829C67.177 156.549 70.2985 158.114 73.4994 159.516C73.6055 159.436 73.7203 159.367 73.8418 159.311C80.3325 156.604 97.054 151.454 122.142 156.854ZM136.156 135.599C134.449 132.16 133.028 129.024 131.665 125.991C128.118 118.147 125.22 111.763 119.495 104.703C115.012 122.376 117.959 141.038 127.693 156.628C127.771 156.745 127.828 156.873 127.862 157.006L131.025 159.148L131.118 159.152C131.446 159.25 131.73 159.454 131.922 159.728C138.078 163.843 143.94 167.815 149.434 171.641L152.22 171.644C153.88 171.717 155.546 171.88 157.195 171.953C158.346 172.004 159.508 172.055 160.663 172.036C150.156 162.343 141.791 146.969 136.156 135.599ZM116.95 102.259C116.99 102.124 117.05 101.996 117.124 101.876C108.702 92.4954 93.2412 83.8057 75.4475 78.2667C77.4813 99.943 85.8068 120.631 99.4726 137.967C99.5607 138.08 99.6318 138.204 99.6837 138.336L110.881 145.737C114.745 148.29 118.545 150.793 122.282 153.247C114.075 137.455 112.164 119.314 116.908 102.257L116.95 102.259ZM131.765 118.628L134.592 124.759C135.957 127.772 137.357 130.887 139.037 134.264C140.526 137.273 142.22 140.561 144.076 143.946C141.42 136.391 138.424 128.351 135.139 120.038L131.765 118.628ZM122.845 90.8562C122.624 90.8392 122.408 90.7822 122.209 90.688L121.195 90.1528C111.156 85.0456 96.4483 77.5704 85.0975 78.4216C99.8192 84.0755 112.322 91.804 119.675 100.026C123.636 104.43 127.018 109.286 129.748 114.485C129.875 114.506 129.999 114.542 130.117 114.591L133.622 116.087C130.176 107.877 126.587 99.3998 122.752 90.8521L122.845 90.8562ZM24.1727 113.797C34.443 110.764 45.3368 110.246 55.8673 112.29C37.0985 99.0504 19.279 85.5219 4.7003 72.2663C9.58515 86.7264 15.539 101.003 23.6289 114.083C23.788 113.952 23.9724 113.855 24.1727 113.797ZM89.6092 135.3C80.7221 129.372 71.6548 123.297 62.7909 117.1C62.6646 117.089 62.5402 117.064 62.4203 117.024C50.3659 113.185 37.3734 113.032 25.2252 116.586L26.3588 118.328C31.3121 125.886 37.0948 132.911 43.6073 139.279C58.35 134.249 74.1717 132.881 89.6092 135.3Z" fill="#F2EBF4"/>
<path d="M423.114 178.31C422.563 178.31 422.035 178.1 421.645 177.724C421.256 177.349 421.037 176.841 421.037 176.31C421.037 175.78 421.256 175.271 421.645 174.896C422.035 174.521 422.563 174.31 423.114 174.31H440.768C441.318 174.31 441.847 174.521 442.236 174.896C442.626 175.271 442.844 175.78 442.844 176.31C442.844 176.841 442.626 177.349 442.236 177.724C441.847 178.1 441.318 178.31 440.768 178.31H423.114ZM450.103 178.01C449.552 178.01 449.024 177.8 448.635 177.424C448.245 177.049 448.026 176.541 448.026 176.01C448.026 175.48 448.245 174.971 448.635 174.596C449.024 174.221 449.552 174.01 450.103 174.01H456.594C457.145 174.01 457.673 174.221 458.062 174.596C458.452 174.971 458.671 175.48 458.671 176.01C458.671 176.541 458.452 177.049 458.062 177.424C457.673 177.8 457.145 178.01 456.594 178.01H450.093H450.103ZM160.996 178.91C160.445 178.91 159.917 178.7 159.527 178.324C159.138 177.949 158.919 177.441 158.919 176.91C158.919 176.38 159.138 175.871 159.527 175.496C159.917 175.121 160.445 174.91 160.996 174.91C214.227 174.57 268.165 174.53 320.337 174.49C351.044 174.49 382.801 174.49 414.058 174.36C414.609 174.36 415.137 174.571 415.527 174.946C415.916 175.321 416.135 175.83 416.135 176.36C416.135 176.891 415.916 177.399 415.527 177.774C415.137 178.15 414.609 178.36 414.058 178.36C382.78 178.45 351.024 178.47 320.316 178.49C268.154 178.49 214.217 178.57 160.996 178.91ZM147.288 179.01C146.737 179.01 146.209 178.8 145.819 178.424C145.43 178.049 145.211 177.541 145.211 177.01C145.211 176.48 145.43 175.971 145.819 175.596C146.209 175.221 146.737 175.01 147.288 175.01H150.902C151.453 175.01 151.981 175.221 152.37 175.596C152.76 175.971 152.979 176.48 152.979 177.01C152.979 177.541 152.76 178.049 152.37 178.424C151.981 178.8 151.453 179.01 150.902 179.01H147.288ZM117.567 178.29C117.016 178.29 116.488 178.08 116.099 177.704C115.709 177.329 115.49 176.821 115.49 176.29C115.49 175.76 115.709 175.251 116.099 174.876C116.488 174.501 117.016 174.29 117.567 174.29C124.058 174.29 130.288 174.29 136.976 174.34C137.527 174.34 138.055 174.551 138.445 174.926C138.834 175.301 139.053 175.81 139.053 176.34C139.053 176.871 138.834 177.379 138.445 177.754C138.055 178.13 137.527 178.34 136.976 178.34C130.288 178.34 124.058 178.34 117.578 178.29H117.567Z" fill="#FDDC2B"/>
<path d="M420.528 175.63C419.977 175.63 419.449 175.419 419.059 175.044C418.67 174.669 418.451 174.161 418.451 173.63C418.451 173.1 418.67 172.591 419.059 172.216C419.449 171.841 419.977 171.63 420.528 171.63H438.182C438.733 171.63 439.261 171.841 439.65 172.216C440.04 172.591 440.259 173.1 440.259 173.63C440.259 174.161 440.04 174.669 439.65 175.044C439.261 175.419 438.733 175.63 438.182 175.63H420.528ZM447.518 175.2C446.967 175.2 446.438 174.989 446.049 174.614C445.659 174.239 445.441 173.731 445.441 173.2C445.441 172.67 445.659 172.161 446.049 171.786C446.438 171.411 446.967 171.2 447.518 171.2H454.029C454.579 171.2 455.108 171.411 455.497 171.786C455.887 172.161 456.106 172.67 456.106 173.2C456.106 173.731 455.887 174.239 455.497 174.614C455.108 174.989 454.579 175.2 454.029 175.2H447.518ZM158.41 175.21C157.859 175.21 157.331 174.999 156.941 174.624C156.552 174.249 156.333 173.741 156.333 173.21C156.333 172.68 156.552 172.171 156.941 171.796C157.331 171.421 157.859 171.21 158.41 171.21C211.641 171.21 265.589 171.36 317.762 171.46C348.991 171.52 380.228 171.573 411.473 171.62C412.023 171.62 412.552 171.831 412.941 172.206C413.331 172.581 413.549 173.09 413.549 173.62C413.549 174.151 413.331 174.659 412.941 175.034C412.552 175.409 412.023 175.62 411.473 175.62C380.215 175.58 348.978 175.527 317.762 175.46C265.589 175.36 211.641 175.25 158.42 175.21H158.41ZM144.702 175.2C144.151 175.2 143.623 174.989 143.234 174.614C142.844 174.239 142.625 173.731 142.625 173.2C142.625 172.67 142.844 172.161 143.234 171.786C143.623 171.411 144.151 171.2 144.702 171.2H148.316C148.867 171.2 149.395 171.411 149.785 171.786C150.174 172.161 150.393 172.67 150.393 173.2C150.393 173.731 150.174 174.239 149.785 174.614C149.395 174.989 148.867 175.2 148.316 175.2H144.702ZM114.981 175.16C114.709 175.164 114.438 175.117 114.184 175.02C113.93 174.923 113.699 174.779 113.503 174.596C113.307 174.413 113.151 174.195 113.043 173.954C112.935 173.712 112.877 173.453 112.873 173.19C112.865 172.66 113.076 172.148 113.46 171.767C113.843 171.387 114.368 171.168 114.919 171.16C121.378 170.96 127.588 170.97 134.463 171.16C135.002 171.193 135.507 171.427 135.87 171.812C136.234 172.197 136.427 172.703 136.409 173.223C136.392 173.743 136.165 174.236 135.776 174.598C135.388 174.959 134.868 175.161 134.328 175.16C127.536 174.94 121.42 174.93 115.054 175.16H114.981Z" fill="#4B344D"/>
<path d="M420.528 175.63C419.977 175.63 419.449 175.419 419.059 175.044C418.67 174.669 418.451 174.161 418.451 173.63C418.451 173.1 418.67 172.591 419.059 172.216C419.449 171.841 419.977 171.63 420.528 171.63H438.182C438.733 171.63 439.261 171.841 439.65 172.216C440.04 172.591 440.259 173.1 440.259 173.63C440.259 174.161 440.04 174.669 439.65 175.044C439.261 175.419 438.733 175.63 438.182 175.63H420.528ZM447.518 175.2C446.967 175.2 446.438 174.989 446.049 174.614C445.659 174.239 445.441 173.731 445.441 173.2C445.441 172.67 445.659 172.161 446.049 171.786C446.438 171.411 446.967 171.2 447.518 171.2H454.029C454.579 171.2 455.108 171.411 455.497 171.786C455.887 172.161 456.106 172.67 456.106 173.2C456.106 173.731 455.887 174.239 455.497 174.614C455.108 174.989 454.579 175.2 454.029 175.2H447.518ZM158.41 175.21C157.859 175.21 157.331 174.999 156.941 174.624C156.552 174.249 156.333 173.741 156.333 173.21C156.333 172.68 156.552 172.171 156.941 171.796C157.331 171.421 157.859 171.21 158.41 171.21C211.641 171.21 265.589 171.36 317.762 171.46C348.991 171.52 380.228 171.573 411.473 171.62C412.023 171.62 412.552 171.831 412.941 172.206C413.331 172.581 413.549 173.09 413.549 173.62C413.549 174.151 413.331 174.659 412.941 175.034C412.552 175.409 412.023 175.62 411.473 175.62C380.215 175.58 348.978 175.527 317.762 175.46C265.589 175.36 211.641 175.25 158.42 175.21H158.41ZM144.702 175.2C144.151 175.2 143.623 174.989 143.234 174.614C142.844 174.239 142.625 173.731 142.625 173.2C142.625 172.67 142.844 172.161 143.234 171.786C143.623 171.411 144.151 171.2 144.702 171.2H148.316C148.867 171.2 149.395 171.411 149.785 171.786C150.174 172.161 150.393 172.67 150.393 173.2C150.393 173.731 150.174 174.239 149.785 174.614C149.395 174.989 148.867 175.2 148.316 175.2H144.702ZM114.981 175.16C114.709 175.164 114.438 175.117 114.184 175.02C113.93 174.923 113.699 174.779 113.503 174.596C113.307 174.413 113.151 174.195 113.043 173.954C112.935 173.712 112.877 173.453 112.873 173.19C112.865 172.66 113.076 172.148 113.46 171.767C113.843 171.387 114.368 171.168 114.919 171.16C121.378 170.96 127.588 170.97 134.463 171.16C135.002 171.193 135.507 171.427 135.87 171.812C136.234 172.197 136.427 172.703 136.409 173.223C136.392 173.743 136.165 174.236 135.776 174.598C135.388 174.959 134.868 175.161 134.328 175.16C127.536 174.94 121.42 174.93 115.054 175.16H114.981Z" fill="#4B344D"/>
<path d="M241.642 169.014H327.835" stroke="#4B344D" stroke-width="6" stroke-linecap="round"/>
<path d="M387.027 147.014V129.014" stroke="#4B344D" stroke-width="6" stroke-linecap="round"/>
<path d="M182.45 25.0139H387.027" stroke="#4B344D" stroke-width="6" stroke-linecap="round"/>
<path d="M182.45 148.014H387.027" stroke="#4B344D" stroke-width="6" stroke-linecap="round"/>
<path d="M218.796 129.014L387.027 129.014" stroke="#4B344D" stroke-width="6" stroke-linecap="round"/>
<path d="M182.45 25.5139V148.014" stroke="#4B344D" stroke-width="6" stroke-linecap="round"/>
<path d="M387.027 25.0139V47.0139" stroke="#4B344D" stroke-width="6" stroke-linecap="round"/>
<line x1="263.45" y1="158.014" x2="306.027" y2="158.014" stroke="#4B344D" stroke-width="4"/>
<path d="M240.719 56.5403L224.8 66.4184" stroke="#4B344D" stroke-width="4" stroke-linecap="round"/>
<path d="M240.719 56.5403L224.8 46.2132" stroke="#4B344D" stroke-width="4" stroke-linecap="round"/>
<path d="M215.199 72.7843L219.439 40.2248" stroke="#4B344D" stroke-width="4" stroke-linecap="round"/>
<path d="M195.95 119.014H304.988" stroke="#C7A9CD" stroke-width="4" stroke-linecap="round"/>
<path d="M195.95 108.014H317.45" stroke="#C7A9CD" stroke-width="4" stroke-linecap="round"/>
<path d="M195.95 88.0139H262.411" stroke="#FFC800" stroke-width="4" stroke-linecap="round"/>
<path d="M194.167 56.0918L210.086 66.4188" stroke="#FFC800" stroke-width="4" stroke-linecap="round"/>
<path d="M194.167 57.2021L210.086 47.3241" stroke="#FFC800" stroke-width="4" stroke-linecap="round"/>
<path d="M192.962 56.3984L208.881 46.5203" stroke="#4B344D" stroke-width="4" stroke-linecap="round"/>
<path d="M192.962 56.3984L208.881 66.7255" stroke="#4B344D" stroke-width="4" stroke-linecap="round"/>
<g clip-path="url(#clip0_121_240)">
<path d="M389.104 100.014C393.692 100.014 397.412 96.6561 397.412 92.5139C397.412 88.3718 393.692 85.0139 389.104 85.0139C384.516 85.0139 380.796 88.3718 380.796 92.5139C380.796 96.6561 384.516 100.014 389.104 100.014Z" stroke="#FFC800" stroke-width="4" stroke-linecap="round" stroke-linejoin="round"/>
<path d="M389.687 68.0139H388.521C387.116 68.0139 385.769 68.5302 384.775 69.4491C383.782 70.368 383.224 71.6144 383.224 72.9139V73.3549C383.223 74.2142 382.978 75.0581 382.513 75.8021C382.048 76.546 381.38 77.1638 380.575 77.5934L379.436 78.2059C378.631 78.636 377.717 78.8624 376.788 78.8624C375.858 78.8624 374.944 78.636 374.139 78.2059L373.742 78.0099C372.526 77.3613 371.082 77.1854 369.726 77.5207C368.37 77.856 367.214 78.6752 366.511 79.7984L365.928 80.7294C365.227 81.8538 365.037 83.1896 365.399 84.4436C365.762 85.6976 366.647 86.7673 367.862 87.4179L368.259 87.6629C369.059 88.0905 369.725 88.7044 370.19 89.4437C370.654 90.1829 370.902 91.0218 370.907 91.8769V93.1264C370.911 93.9898 370.668 94.8389 370.203 95.5875C369.738 96.3361 369.067 96.9577 368.259 97.3894L367.862 97.6099C366.647 98.2605 365.762 99.3302 365.399 100.584C365.037 101.838 365.227 103.174 365.928 104.298L366.511 105.229C367.214 106.353 368.37 107.172 369.726 107.507C371.082 107.842 372.526 107.667 373.742 107.018L374.139 106.822C374.944 106.392 375.858 106.165 376.788 106.165C377.717 106.165 378.631 106.392 379.436 106.822L380.575 107.434C381.38 107.864 382.048 108.482 382.513 109.226C382.978 109.97 383.223 110.814 383.224 111.673V112.114C383.224 113.413 383.782 114.66 384.775 115.579C385.769 116.498 387.116 117.014 388.521 117.014H389.687C391.092 117.014 392.439 116.498 393.432 115.579C394.426 114.66 394.984 113.413 394.984 112.114V111.673C394.985 110.814 395.23 109.97 395.695 109.226C396.16 108.482 396.828 107.864 397.633 107.434L398.772 106.822C399.577 106.392 400.49 106.165 401.42 106.165C402.35 106.165 403.264 106.392 404.069 106.822L404.466 107.018C405.682 107.667 407.126 107.842 408.482 107.507C409.837 107.172 410.994 106.353 411.697 105.229L412.28 104.274C412.981 103.15 413.171 101.814 412.809 100.56C412.446 99.3057 411.561 98.236 410.346 97.5854L409.949 97.3894C409.141 96.9577 408.47 96.3361 408.005 95.5875C407.54 94.8389 407.297 93.9898 407.3 93.1264V91.9014C407.297 91.038 407.54 90.189 408.005 89.4404C408.47 88.6918 409.141 88.0701 409.949 87.6384L410.346 87.4179C411.561 86.7673 412.446 85.6976 412.809 84.4436C413.171 83.1896 412.981 81.8538 412.28 80.7294L411.697 79.7984C410.994 78.6752 409.837 77.856 408.482 77.5207C407.126 77.1854 405.682 77.3613 404.466 78.0099L404.069 78.2059C403.264 78.636 402.35 78.8624 401.42 78.8624C400.49 78.8624 399.577 78.636 398.772 78.2059L397.633 77.5934C396.828 77.1638 396.16 76.546 395.695 75.8021C395.23 75.0581 394.985 74.2142 394.984 73.3549V72.9139C394.984 71.6144 394.426 70.368 393.432 69.4491C392.439 68.5302 391.092 68.0139 389.687 68.0139Z" stroke="#FFC800" stroke-width="4" stroke-linecap="round" stroke-linejoin="round"/>
<path d="M386.918 60.2866H385.547C383.894 60.2866 382.309 60.8836 381.141 61.9463C379.972 63.0091 379.316 64.4504 379.316 65.9533V66.4633C379.315 67.457 379.026 68.433 378.48 69.2933C377.933 70.1537 377.147 70.8681 376.201 71.365L374.861 72.0733C373.914 72.5706 372.839 72.8325 371.746 72.8325C370.652 72.8325 369.577 72.5706 368.63 72.0733L368.163 71.8466C366.733 71.0965 365.035 70.893 363.44 71.2808C361.845 71.6686 360.485 72.616 359.658 73.915L358.973 74.9916C358.148 76.2919 357.924 77.8368 358.35 79.287C358.777 80.7372 359.818 81.9742 361.247 82.7266L361.714 83.01C362.656 83.5044 363.439 84.2144 363.985 85.0693C364.532 85.9242 364.823 86.8944 364.829 87.8833V89.3283C364.834 90.3268 364.548 91.3087 364.001 92.1744C363.454 93.0401 362.665 93.759 361.714 94.2583L361.247 94.5133C359.818 95.2657 358.777 96.5028 358.35 97.953C357.924 99.4032 358.148 100.948 358.973 102.248L359.658 103.325C360.485 104.624 361.845 105.571 363.44 105.959C365.035 106.347 366.733 106.143 368.163 105.393L368.63 105.167C369.577 104.669 370.652 104.407 371.746 104.407C372.839 104.407 373.914 104.669 374.861 105.167L376.201 105.875C377.147 106.372 377.933 107.086 378.48 107.947C379.026 108.807 379.315 109.783 379.316 110.777V111.287C379.316 112.79 379.972 114.231 381.141 115.294C382.309 116.356 383.894 116.953 385.547 116.953H386.918C388.57 116.953 390.155 116.356 391.323 115.294C392.492 114.231 393.148 112.79 393.148 111.287V110.777C393.149 109.783 393.438 108.807 393.985 107.947C394.531 107.086 395.317 106.372 396.264 105.875L397.603 105.167C398.55 104.669 399.625 104.407 400.719 104.407C401.812 104.407 402.887 104.669 403.834 105.167L404.301 105.393C405.731 106.143 407.43 106.347 409.024 105.959C410.619 105.571 411.979 104.624 412.806 103.325L413.492 102.22C414.317 100.92 414.54 99.3748 414.114 97.9246C413.687 96.4744 412.646 95.2374 411.218 94.485L410.75 94.2583C409.799 93.759 409.01 93.0401 408.463 92.1744C407.916 91.3087 407.63 90.3268 407.635 89.3283V87.9116C407.63 86.9131 407.916 85.9313 408.463 85.0655C409.01 84.1998 409.799 83.4809 410.75 82.9816L411.218 82.7266C412.646 81.9742 413.687 80.7372 414.114 79.287C414.54 77.8368 414.317 76.2919 413.492 74.9916L412.806 73.915C411.979 72.616 410.619 71.6686 409.024 71.2808C407.43 70.893 405.731 71.0965 404.301 71.8466L403.834 72.0733C402.887 72.5706 401.812 72.8325 400.719 72.8325C399.625 72.8325 398.55 72.5706 397.603 72.0733L396.264 71.365C395.317 70.8681 394.531 70.1537 393.985 69.2933C393.438 68.433 393.149 67.457 393.148 66.4633V65.9533C393.148 64.4504 392.492 63.0091 391.323 61.9463C390.155 60.8836 388.57 60.2866 386.918 60.2866Z" stroke="#4B344D" stroke-width="4" stroke-linecap="round" stroke-linejoin="round"/>
<path d="M386.232 97.1201C391.394 97.1201 395.578 93.3145 395.578 88.6201C395.578 83.9257 391.394 80.1201 386.232 80.1201C381.07 80.1201 376.886 83.9257 376.886 88.6201C376.886 93.3145 381.07 97.1201 386.232 97.1201Z" stroke="black" stroke-width="2" stroke-linecap="round" stroke-linejoin="round"/>
<path d="M386.232 97.1201C391.394 97.1201 395.578 93.3145 395.578 88.6201C395.578 83.9257 391.394 80.1201 386.232 80.1201C381.07 80.1201 376.886 83.9257 376.886 88.6201C376.886 93.3145 381.07 97.1201 386.232 97.1201Z" stroke="#4B344D" stroke-width="4" stroke-linecap="round" stroke-linejoin="round"/>
</g>
<defs>
<clipPath id="clip0_121_240">
<rect width="74.7692" height="68" fill="white" transform="translate(349.642 51.0139)"/>
</clipPath>
</defs>
</svg>
