<svg width="480" height="220" viewBox="0 0 480 220" fill="none" xmlns="http://www.w3.org/2000/svg">
<g clip-path="url(#clip0_47_232)">
<mask id="mask0_47_232" style="mask-type:luminance" maskUnits="userSpaceOnUse" x="0" y="0" width="480" height="220">
<path d="M0 0H480V220H0V0Z" fill="white"/>
</mask>
<g mask="url(#mask0_47_232)">
<path d="M478.627 161.35C464.057 164.47 444.437 170.59 432.427 180.9C396.017 217.82 342.257 228.51 293.427 213.41C294.277 212.04 295.157 210.69 296.037 209.35C294.117 210.07 290.407 213.4 289.567 209.91C289.007 202.6 289.737 195.23 290.477 187.91C291.667 151.61 309.137 119.62 337.117 96.78C362.417 73.91 396.317 58.78 427.977 46.53C429.057 46.08 430.507 46.81 430.367 47.96C426.067 84.96 414.367 116.96 393.017 140.73C369.197 146.51 346.017 156.83 326.267 171.41C323.677 170.81 320.877 171.19 318.267 170.71C321.367 166.48 324.587 162.33 327.867 158.22C329.277 160.48 333.197 158.88 335.507 159.33C338.047 158.68 343.167 161.26 344.087 158.06C342.807 154.68 332.487 156.64 329.087 156.64C332.881 151.94 336.701 147.273 340.547 142.64C348.947 144.79 358.597 143.64 367.357 145.2C375.747 140.15 344.357 140.66 341.867 141.07C344.623 137.742 347.416 134.445 350.247 131.18C361.412 128.243 372.877 126.599 384.417 126.28C389.097 121.14 356.347 127.28 353.557 127.39C357.397 123.02 361.267 118.67 365.227 114.39C404.897 108.9 419.047 105.05 367.597 111.82C383.247 92.93 390.517 90.7 413.597 83.91C418.087 78.85 391.547 89.04 389.597 89.34C391.597 85.89 433.117 52.87 421.007 54.81C411.257 66.71 398.577 75.74 387.857 86.7C388.487 84.33 400.557 63.86 394.627 66.33C390.567 74.07 388.107 82.69 384.027 90.47C377.907 96.5698 371.952 102.832 366.167 109.25C366.647 107.08 380.797 77.36 374.087 82.84C367.247 96.84 364.867 113.19 353.087 124.06C353.347 120.44 361.697 87.17 355.917 90.27C351.507 105.61 356.047 124.59 342.917 136.07C342.477 133.15 343.587 95.59 338.437 103.07C338.827 115.26 340.067 127.51 339.917 139.74L330.247 151.5C329.937 148.38 330.397 111.82 325.547 118.33C326.547 130.33 326.647 142.91 327.597 154.76C323.977 159.2 320.427 163.69 317.017 168.28C317.217 165.7 316.627 130.28 312.427 136.84C313.737 148.67 314.657 160.73 313.897 172.56C310.457 177.09 290.627 206.75 295.997 209.24C298.887 211.24 300.127 204.14 301.947 202.58C308.747 202.66 315.667 202.71 322.557 202.44C333.187 211.22 349.797 217.3 326.667 202.23C331.889 201.947 337.091 201.366 342.247 200.49C353.327 207.72 366.247 212.23 346.037 199.77C349.66 199.009 353.234 198.027 356.737 196.83C358.737 197.26 383.377 208.31 379.677 202.83C373.437 200.19 366.807 198.05 360.517 195.37C364.825 193.659 368.957 191.535 372.857 189.03C394.237 197.03 405.317 195.24 375.477 187.32C378.767 185.08 381.987 182.76 385.277 180.52C389.907 181.94 394.837 182.43 399.547 183.64C406.727 180.75 389.547 179.35 387.757 178.78C392.678 175.006 398.222 172.123 404.137 170.26C415.857 176.8 429.517 177.57 407.497 169.26C412.067 168.02 416.747 167.13 421.417 166.26C427.497 171.54 437.957 172.26 425.007 165.6C428.377 164.98 431.747 164.4 435.137 163.86C436.617 164.86 441.217 167.61 442.787 166.28C443.337 164.43 440.387 164 439.237 163.28C446.886 162.153 454.617 161.668 462.347 161.83C467.917 157.17 438.767 161.16 436.407 161.52C437.687 160.52 449.817 156.28 443.917 155.46C437.187 159.13 430.917 163.28 423.187 163.79C424.597 161.4 431.287 158.87 430.327 156.29C428.077 155.5 421.067 162.98 418.537 164.63C413.628 165.484 408.77 166.613 403.987 168.01C407.417 164.42 410.357 160.37 413.987 157.01C415.497 151.21 401.047 167.93 400.447 169.14C396.178 170.681 392.08 172.658 388.217 175.04C392.117 167.48 397.757 160.47 400.797 152.61C397.337 145.18 393.297 176.82 371.147 186.44C372.457 184.16 386.887 162.02 380.327 163.84C373.157 174.19 370.997 190.4 356.997 193.45C358.457 190.85 374.667 166.74 366.997 168.55C362.387 177.12 359.557 186.86 353.447 194.65C350.667 195.52 347.847 196.26 344.987 196.85C346.437 194.41 361.217 172.85 353.987 174.43C349.587 181.76 347.037 190.38 341.987 197.43C336.537 198.381 331.033 198.989 325.507 199.25C342.317 171.55 333.137 176.33 321.887 199.41C315.887 199.63 309.887 199.6 303.887 199.54C339.997 145.93 424.097 124 478.977 159.24C479.159 159.369 479.301 159.546 479.387 159.752C479.473 159.958 479.498 160.184 479.461 160.404C479.425 160.624 479.327 160.829 479.18 160.997C479.032 161.164 478.841 161.286 478.627 161.35ZM317.247 173.29C317.123 173.274 317.003 173.232 316.895 173.169C316.786 173.105 316.692 173.021 316.617 172.92C315.977 173.81 315.337 174.7 314.717 175.59C311.104 180.726 307.766 186.05 304.717 191.54C303.717 193.41 302.717 195.32 301.787 197.23C302.027 196.87 302.257 196.5 302.497 196.15C305.031 192.609 307.783 189.229 310.737 186.03C314.637 181.622 318.862 177.514 323.377 173.74H321.867C320.287 173.67 318.737 173.5 317.247 173.29Z" fill="#F1EAF4"/>
<path d="M116.207 161.63C112.207 168.12 106.917 169.87 111.827 179.13C122.387 201.9 95.477 198.86 102.267 176.13C92.3569 180.75 90.117 189.44 85.967 199.5C77.677 212.91 64.9669 197.08 82.197 184.86C73.197 186.79 64.297 191.31 54.947 190.06C53.6929 189.832 52.5524 189.188 51.7103 188.231C50.8681 187.275 50.3736 186.062 50.307 184.789C50.24 183.516 50.6044 182.259 51.3412 181.219C52.078 180.179 53.1441 179.419 54.367 179.06C71.437 176.83 76.197 186.31 94.807 176.23C70.487 178.62 71.477 153.82 94.717 167.47C97.197 169.29 101.157 169.47 103.167 170.52C107.167 167.19 109.837 162.7 112.697 158.44C107.867 153.93 103.057 149.37 98.697 144.44C94.2169 144.99 89.697 144.83 85.217 144.97C78.007 152.08 75.2169 164.6 66.557 170.67C62.087 173.96 56.367 168.91 58.557 163.67C62.217 155.9 69.127 149.75 76.017 144.73C73.017 144.57 70.017 144.34 67.017 143.89C52.467 149.34 52.497 163.18 40.867 169.28C36.417 171.07 31.027 166.48 32.567 162.02C36.427 152.18 46.787 146.62 55.927 141.88C48.177 140.31 40.477 138.41 32.837 136.4C-18.263 143.16 -3.86304 97.06 36.067 134.02C40.397 135.02 44.737 136.08 49.127 136.86C41.8158 132.652 35.5551 126.839 30.817 119.86C25.817 113.53 28.817 98.23 37.087 103.92C54.087 117.24 40.877 140.54 70.087 140.17C63.427 134.45 54.287 119.71 55.617 114.1C56.837 105.51 66.167 104.89 70.207 111.95C73.647 117.39 72.647 129.1 74.097 133.49C74.3955 136.33 75.6841 138.975 77.737 140.96C83.7001 141.595 89.7138 141.595 95.677 140.96C84.567 128.23 75.117 114.16 66.227 99.83C58.487 93.34 42.287 95.88 34.857 87.04C28.727 79.11 35.597 71.59 44.507 75.43C49.987 78.05 55.067 82.93 59.507 87.43C54.997 76.24 35.667 44.37 55.937 40.03C72.437 43.44 51.307 72.12 63.527 86.44C64.737 75.83 69.377 63.76 79.827 60.46C84.517 59.46 85.277 61.17 87.287 63.83C89.847 77.03 72.797 83.5 67.567 94.11C76.567 111.57 88.567 127.33 102.107 141.55C104.637 136.77 107.007 131.89 109.107 126.89C105.757 121.19 100.027 117.58 96.107 112.34C93.187 108.14 95.647 100.91 101.507 103.02C107.287 105.62 110.447 112.5 112.607 118.22C113.967 114.75 115.327 111.22 116.407 107.68C111.907 106.13 103.247 95 100.597 92.08C94.687 85.96 93.537 70.69 105.597 73.61C114.447 79.79 112.717 94.19 117.597 103.66C119.53 96.9469 121.063 90.1249 122.187 83.23C93.937 68.03 115.367 46.52 123.587 74.34C123.877 71.42 124.587 68.5 124.417 65.57C124.357 64.99 124.417 65.41 124.417 65.72C124.987 56.36 120.267 50.16 125.767 43.3C128.317 40.36 133.267 40.52 134.537 44.56C135.347 52.34 130.897 57.09 128.727 65.39C128.877 65.03 128.957 64.83 128.787 65.39C128.301 67.0974 127.967 68.8441 127.787 70.61C133.227 62.73 143.127 55.42 148.367 65.07C147.947 74.49 133.367 76.22 126.507 80.01C125.337 86.84 123.577 93.54 121.757 100.22C146.467 77.51 166.027 107.07 127.757 106.3C125.977 106.2 120.647 107.97 119.257 108.55C118.067 112.26 116.797 115.95 115.387 119.55C120.837 116.71 126.387 113.69 132.547 112.76H132.737C138.627 111.41 149.607 114.45 145.457 122.34C137.287 131.41 121.587 122.75 112.367 127.22C109.817 132.78 107.267 138.39 104.167 143.68C120.307 161.38 139.727 175.68 160.487 187.5C168.787 206.15 118.607 164.43 116.207 161.63ZM132.597 112.76C132.491 112.748 132.383 112.748 132.277 112.76H132.597Z" fill="#F1EAF4"/>
<path d="M366.647 33.8201C366.218 33.8176 365.8 33.6887 365.444 33.4496C365.088 33.2105 364.811 32.8718 364.646 32.4759C364.482 32.08 364.438 31.6444 364.52 31.2236C364.602 30.8028 364.806 30.4155 365.107 30.1101L377.387 17.8401C377.694 17.5603 378.075 17.3747 378.485 17.3054C378.895 17.2362 379.316 17.2861 379.698 17.4493C380.08 17.6125 380.408 17.8821 380.641 18.2261C380.874 18.57 381.004 18.9737 381.014 19.3891C381.029 19.9455 380.829 20.4864 380.457 20.9001L368.177 33.1801C367.772 33.5873 367.222 33.8174 366.647 33.8201ZM351.087 26.2301C350.654 26.2306 350.231 26.1013 349.872 25.8589C349.513 25.6165 349.235 25.2721 349.074 24.8701C348.966 24.6034 348.913 24.3178 348.917 24.0301V11.0301C348.917 10.4546 349.146 9.90264 349.553 9.49569C349.96 9.08873 350.511 8.86011 351.087 8.86011C351.663 8.86011 352.214 9.08873 352.621 9.49569C353.028 9.90264 353.257 10.4546 353.257 11.0301V24.0301C353.261 24.3176 353.207 24.6029 353.1 24.8697C352.993 25.1364 352.834 25.3792 352.632 25.5841C352.43 25.7888 352.19 25.9513 351.924 26.0621C351.659 26.173 351.374 26.2301 351.087 26.2301ZM385.087 50.1001H372.087C371.802 50.1004 371.52 50.0444 371.256 49.9355C370.993 49.8265 370.754 49.6667 370.552 49.4651C370.35 49.2636 370.191 49.0242 370.082 48.7608C369.973 48.4974 369.917 48.2151 369.917 47.9301C369.917 47.6451 369.973 47.363 370.082 47.0997C370.191 46.8364 370.351 46.5972 370.553 46.3957C370.754 46.1942 370.993 46.0343 371.257 45.9253C371.52 45.8162 371.802 45.7601 372.087 45.7601H385.087C385.372 45.7598 385.654 45.8158 385.918 45.9248C386.181 46.0337 386.42 46.1935 386.622 46.3951C386.824 46.5967 386.983 46.836 387.092 47.0994C387.201 47.3628 387.257 47.6451 387.257 47.9301C387.257 48.2151 387.201 48.4973 387.092 48.7605C386.983 49.0238 386.823 49.263 386.621 49.4645C386.42 49.666 386.181 49.8259 385.917 49.9349C385.654 50.044 385.372 50.1001 385.087 50.1001Z" fill="#C4A3C9"/>
<path d="M363.737 30.92C364.31 30.9203 364.86 30.6938 365.267 30.29L377.567 18.03C377.773 17.8294 377.937 17.5899 378.049 17.3254C378.162 17.0609 378.221 16.7766 378.223 16.4892C378.225 16.2017 378.169 15.9167 378.06 15.6508C377.951 15.3849 377.79 15.1433 377.587 14.94C377.384 14.7367 377.142 14.5758 376.876 14.4667C376.61 14.3575 376.325 14.3023 376.038 14.3042C375.75 14.306 375.466 14.365 375.202 14.4775C374.937 14.5901 374.698 14.7541 374.497 14.96L362.217 27.22C361.81 27.6274 361.582 28.1794 361.582 28.755C361.582 29.3306 361.81 29.8826 362.217 30.29C362.623 30.69 363.168 30.916 363.737 30.92ZM348.187 23.34C348.616 23.3403 349.036 23.2131 349.393 22.9746C349.749 22.736 350.027 22.3968 350.191 22C350.3 21.737 350.357 21.455 350.357 21.17V8.17C350.357 7.59448 350.128 7.04253 349.721 6.63558C349.314 6.22862 348.763 6 348.187 6C347.611 6 347.06 6.22862 346.653 6.63558C346.246 7.04253 346.017 7.59448 346.017 8.17V21.17C346.017 21.7455 346.246 22.2975 346.653 22.7044C347.06 23.1114 347.611 23.34 348.187 23.34ZM366.997 45.03C366.997 45.315 367.053 45.5971 367.162 45.8604C367.271 46.1237 367.431 46.3629 367.633 46.5644C367.834 46.7659 368.073 46.9258 368.337 47.0348C368.6 47.1439 368.882 47.2 369.167 47.2H382.167C382.452 47.2004 382.734 47.1445 382.998 47.0356C383.261 46.9267 383.501 46.7669 383.702 46.5653C383.904 46.3637 384.064 46.1243 384.173 45.8609C384.282 45.5974 384.337 45.3151 384.337 45.03C384.337 44.4545 384.108 43.9025 383.701 43.4956C383.294 43.0886 382.742 42.86 382.167 42.86H369.167C368.882 42.86 368.6 42.9161 368.337 43.0252C368.073 43.1342 367.834 43.2941 367.633 43.4956C367.431 43.6971 367.271 43.9363 367.162 44.1996C367.053 44.4629 366.997 44.745 366.997 45.03Z" fill="#4B354E"/>
<path d="M392.167 125.45H359.167V147.2H392.167V125.45ZM341.417 108.45H308.417V130.2H341.417V108.45Z" fill="white"/>
<path d="M350.477 72.4701H315.477C314.318 72.4701 313.206 72.0096 312.387 71.1901C311.567 70.3706 311.107 69.259 311.107 68.1V51.68C311.107 50.5202 311.567 49.4078 312.387 48.5867C313.206 47.7657 314.317 47.303 315.477 47.3H350.477C351.638 47.3008 352.752 47.7626 353.573 48.5838C354.394 49.405 354.856 50.5186 354.857 51.68V68.1C354.855 69.2602 354.393 70.3722 353.571 71.1916C352.75 72.011 351.637 72.4708 350.477 72.4701Z" fill="#FDDB29"/>
<path d="M346.197 138.15H319.737C318.576 138.147 317.464 137.685 316.643 136.864C315.823 136.043 315.36 134.931 315.357 133.77V117.35C315.36 116.189 315.822 115.077 316.643 114.256C317.464 113.435 318.576 112.973 319.737 112.97H346.207C347.369 112.97 348.483 113.432 349.304 114.253C350.125 115.074 350.587 116.189 350.587 117.35V133.77C350.587 134.346 350.473 134.917 350.252 135.449C350.032 135.981 349.708 136.464 349.3 136.871C348.892 137.277 348.409 137.6 347.876 137.819C347.344 138.039 346.773 138.151 346.197 138.15Z" fill="#C8A9CD"/>
<path d="M395.557 155.66H371.287C368.287 155.66 365.807 153.57 365.807 151V135.15C365.807 132.57 368.257 130.48 371.287 130.48H395.557C398.557 130.48 401.037 132.57 401.037 135.15V151.03C401.037 153.57 398.587 155.66 395.557 155.66Z" fill="#FDDB29"/>
<path d="M387.897 121.78H379.977V95.4601C379.977 91.2601 376.227 87.8501 371.617 87.8501H327.447V68.0301H341.737C343.757 68.0274 345.694 67.2238 347.122 65.7953C348.551 64.3669 349.354 62.4302 349.357 60.4101V46.2101C349.353 44.1903 348.549 42.2542 347.121 40.826C345.693 39.3978 343.757 38.5938 341.737 38.5901H308.887C306.867 38.593 304.93 39.3968 303.502 40.8251C302.074 42.2535 301.27 44.19 301.267 46.2101V60.4301C301.275 62.4467 302.081 64.378 303.509 65.8021C304.937 67.2262 306.87 68.0272 308.887 68.0301H323.157V87.8301H304.987C304.42 87.8306 303.876 88.0562 303.474 88.4575C303.073 88.8587 302.847 89.4027 302.847 89.9701C302.847 90.5377 303.072 91.082 303.474 91.4833C303.875 91.8846 304.419 92.1101 304.987 92.1101H323.157V104.24H313.157C311.138 104.245 309.204 105.05 307.778 106.478C306.351 107.906 305.549 109.842 305.547 111.86V126.09C305.551 128.107 306.355 130.04 307.781 131.466C309.207 132.892 311.14 133.696 313.157 133.7H337.437C339.455 133.697 341.39 132.895 342.818 131.469C344.247 130.042 345.051 128.108 345.057 126.09V111.88C345.054 109.86 344.25 107.924 342.821 106.496C341.393 105.067 339.457 104.264 337.437 104.26H327.437V92.1301H371.607C373.857 92.1301 375.687 93.6201 375.687 95.4601V121.78H363.617C359.417 121.78 356.007 124.78 356.007 128.58V144.43C356.007 148.18 359.417 151.23 363.617 151.23H387.897C392.097 151.23 395.517 148.23 395.517 144.43V128.58C395.517 124.83 392.097 121.78 387.897 121.78ZM360.287 128.58C360.287 127.19 361.787 126.06 363.617 126.06H387.897C389.737 126.06 391.227 127.19 391.227 128.58V144.43C391.227 145.82 389.737 146.95 387.897 146.95H363.617C361.787 146.95 360.287 145.82 360.287 144.43V128.58ZM340.737 126.11C340.734 126.992 340.382 127.837 339.758 128.461C339.134 129.085 338.289 129.437 337.407 129.44H313.157C312.275 129.437 311.429 129.086 310.805 128.462C310.181 127.838 309.83 126.992 309.827 126.11V111.88C309.829 110.998 310.181 110.152 310.805 109.528C311.429 108.904 312.274 108.552 313.157 108.55H337.437C338.32 108.55 339.167 108.901 339.792 109.525C340.416 110.15 340.767 110.997 340.767 111.88L340.737 126.11ZM305.527 46.2101C305.527 45.326 305.877 44.478 306.502 43.8519C307.126 43.2258 307.973 42.8727 308.857 42.8701H341.737C342.621 42.8727 343.468 43.2258 344.092 43.8519C344.716 44.478 345.067 45.326 345.067 46.2101V60.4301C345.067 61.3141 344.716 62.162 344.092 62.788C343.468 63.414 342.621 63.7672 341.737 63.7701H308.887C308.003 63.7667 307.157 63.4133 306.533 62.7874C305.909 62.1615 305.558 61.3139 305.557 60.4301L305.527 46.2101Z" fill="#4B354E"/>
<path d="M292.217 56.4402H118.457V214.39H292.217V56.4402Z" fill="white"/>
<path d="M291.207 53.25H118.337V57.25H291.207V53.25Z" fill="#C8A9CD"/>
<path d="M126.007 60.27C125.791 60.2715 125.578 60.2297 125.378 60.1473C125.179 60.0649 124.999 59.9434 124.847 59.79C124.692 59.6391 124.569 59.4588 124.485 59.2595C124.401 59.0603 124.357 58.8462 124.357 58.63C124.357 58.4137 124.401 58.1997 124.485 58.0004C124.569 57.8012 124.692 57.6208 124.847 57.47C125.076 57.24 125.369 57.0834 125.687 57.02C126.005 56.9567 126.335 56.9893 126.635 57.114C126.834 57.1963 127.015 57.3171 127.168 57.4694C127.32 57.6218 127.441 57.8028 127.523 58.002C127.689 58.4043 127.689 58.8557 127.523 59.258C127.355 59.6587 127.036 59.9773 126.635 60.145C126.436 60.2274 126.223 60.2699 126.007 60.27ZM134.217 60.27C134 60.2707 133.785 60.2287 133.584 60.1464C133.384 60.064 133.201 59.9429 133.047 59.79C132.894 59.6383 132.772 59.4576 132.69 59.2584C132.608 59.0592 132.566 58.8456 132.567 58.63C132.572 58.196 132.744 57.7807 133.047 57.47C133.364 57.1759 133.78 57.0125 134.212 57.0125C134.644 57.0125 135.06 57.1759 135.377 57.47C135.68 57.78 135.852 58.196 135.857 58.63C135.858 58.8456 135.816 59.0592 135.734 59.2585C135.652 59.4578 135.531 59.639 135.378 59.7914C135.226 59.9438 135.045 60.0646 134.846 60.1468C134.646 60.2289 134.433 60.2708 134.217 60.27ZM142.417 60.27C142.147 60.2697 141.882 60.2029 141.644 60.0757C141.406 59.9485 141.204 59.7646 141.054 59.5405C140.904 59.3163 140.812 59.0587 140.785 58.7903C140.758 58.522 140.798 58.2513 140.901 58.002C140.984 57.803 141.105 57.622 141.257 57.47C141.572 57.1761 141.986 57.0127 142.417 57.0127C142.848 57.0127 143.262 57.1761 143.577 57.47C143.811 57.6971 143.97 57.9896 144.035 58.309C144.1 58.6284 144.066 58.9599 143.939 59.26C143.855 59.459 143.732 59.64 143.577 59.79C143.426 59.9437 143.245 60.0655 143.046 60.1479C142.847 60.2304 142.633 60.2719 142.417 60.27Z" fill="#C8A9CD"/>
<path d="M294.737 56.4402C294.781 54.5009 294.054 52.6233 292.715 51.2193C291.377 49.8152 289.536 48.9992 287.597 48.9502H122.097C120.158 48.9997 118.318 49.8159 116.979 51.2198C115.641 52.6238 114.914 54.501 114.957 56.4402L114.847 84.7602C114.826 85.0271 114.86 85.2955 114.948 85.5485C115.036 85.8014 115.175 86.0335 115.357 86.2302C115.538 86.4268 115.759 86.5837 116.004 86.691C116.249 86.7983 116.514 86.8537 116.782 86.8537C117.05 86.8537 117.315 86.7983 117.56 86.691C117.805 86.5837 118.026 86.4268 118.207 86.2302C118.389 86.0335 118.528 85.8014 118.616 85.5485C118.704 85.2955 118.738 85.0271 118.717 84.7602L118.827 66.1202H290.827L291.827 214.39C291.808 214.656 291.845 214.923 291.933 215.174C292.022 215.425 292.161 215.656 292.342 215.851C292.524 216.046 292.744 216.201 292.988 216.306C293.232 216.412 293.496 216.467 293.762 216.467C294.028 216.467 294.292 216.412 294.536 216.306C294.78 216.201 295 216.046 295.182 215.851C295.363 215.656 295.503 215.426 295.591 215.174C295.68 214.923 295.716 214.656 295.697 214.39L294.737 56.4402ZM118.487 62.4402V57.0702C118.464 56.0801 118.834 55.1211 119.516 54.4033C120.198 53.6854 121.137 53.2672 122.127 53.2402H287.517C288.507 53.2664 289.447 53.6844 290.129 54.4024C290.811 55.1204 291.181 56.0799 291.157 57.0702L291.207 62.4402H118.487Z" fill="#4B354E"/>
<path d="M123.737 58.7C124.047 59.005 124.463 59.177 124.897 59.18C125.221 59.1824 125.538 59.0886 125.809 58.9106C126.079 58.7326 126.291 58.4784 126.417 58.18C126.497 57.983 126.538 57.773 126.537 57.56C126.538 57.3444 126.497 57.1307 126.414 56.9314C126.332 56.7322 126.21 56.5515 126.057 56.4C125.744 56.1017 125.329 55.9353 124.897 55.9353C124.465 55.9353 124.049 56.1017 123.737 56.4C123.51 56.6292 123.355 56.9198 123.291 57.2362C123.227 57.5525 123.257 57.8806 123.377 58.18C123.466 58.373 123.588 58.549 123.737 58.7ZM133.117 59.18C133.331 59.1673 133.541 59.1165 133.737 59.03C134.039 58.9071 134.298 58.6967 134.479 58.4259C134.661 58.1551 134.758 57.8362 134.757 57.51C134.758 57.2944 134.717 57.0807 134.634 56.8814C134.552 56.6822 134.43 56.5015 134.277 56.35C133.964 56.0517 133.549 55.8853 133.117 55.8853C132.685 55.8853 132.269 56.0517 131.957 56.35C131.803 56.5015 131.682 56.6822 131.599 56.8814C131.517 57.0806 131.475 57.2944 131.477 57.51C131.476 57.7255 131.518 57.939 131.601 58.1381C131.683 58.3372 131.804 58.518 131.957 58.67C132.262 58.9858 132.678 59.169 133.117 59.18ZM140.167 58.7C140.475 59.007 140.892 59.18 141.327 59.18C141.761 59.177 142.177 59.0048 142.487 58.7C142.639 58.5478 142.76 58.3669 142.843 58.1679C142.925 57.9688 142.967 57.7554 142.967 57.54C142.968 57.3245 142.926 57.1108 142.844 56.9116C142.761 56.7124 142.64 56.5317 142.487 56.38C142.174 56.0817 141.759 55.9153 141.327 55.9153C140.895 55.9153 140.479 56.0817 140.167 56.38C140.014 56.5315 139.892 56.7122 139.81 56.9115C139.727 57.1107 139.685 57.3244 139.687 57.54C139.686 57.7555 139.728 57.9691 139.81 58.1682C139.893 58.3674 140.014 58.5481 140.167 58.7Z" fill="#4B354E"/>
<path d="M251.157 170.77L264.157 208.71L272.237 191.84L289.097 183.76L251.157 170.77Z" fill="#FDDB29"/>
<path d="M277.907 180.93L263.567 187.54C263.177 187.72 256.647 202 256.647 202L245.787 170.53L277.907 180.93ZM242.237 166.73C242.022 166.948 241.872 167.221 241.803 167.52C241.734 167.818 241.749 168.13 241.847 168.42L254.847 206.36C254.951 206.668 255.145 206.938 255.403 207.135C255.661 207.333 255.972 207.45 256.297 207.47H256.397C256.706 207.47 257.009 207.383 257.271 207.218C257.533 207.054 257.743 206.819 257.877 206.54L265.017 191.65L273.017 199.65C273.325 199.957 273.742 200.13 274.177 200.131C274.612 200.13 275.029 199.957 275.337 199.65C275.489 199.498 275.61 199.317 275.693 199.118C275.816 198.818 275.848 198.488 275.784 198.17C275.721 197.852 275.565 197.56 275.337 197.33L267.397 189.39L282.047 182.39C282.256 182.279 282.439 182.124 282.583 181.936C282.728 181.748 282.83 181.531 282.883 181.301C282.936 181.07 282.939 180.83 282.892 180.598C282.844 180.366 282.747 180.146 282.608 179.955C282.42 179.7 282.163 179.504 281.867 179.39L243.927 166.39C243.642 166.283 243.332 166.258 243.033 166.318C242.735 166.379 242.459 166.521 242.237 166.73ZM208.057 176.95V167.4C208.057 166.87 208.268 166.361 208.643 165.986C209.018 165.611 209.526 165.4 210.057 165.4C210.587 165.4 211.096 165.611 211.471 165.986C211.846 166.361 212.057 166.87 212.057 167.4V176.95C212.057 177.48 211.846 177.989 211.471 178.364C211.096 178.739 210.587 178.95 210.057 178.95C209.526 178.95 209.018 178.739 208.643 178.364C208.268 177.989 208.057 177.48 208.057 176.95ZM210.057 160.95C210.32 160.95 210.58 160.898 210.822 160.798C211.065 160.698 211.286 160.55 211.471 160.365C211.657 160.179 211.804 159.958 211.905 159.716C212.005 159.473 212.057 159.213 212.057 158.95V149.4C212.057 148.87 211.846 148.361 211.471 147.986C211.096 147.611 210.587 147.4 210.057 147.4C209.526 147.4 209.018 147.611 208.643 147.986C208.268 148.361 208.057 148.87 208.057 149.4V158.95C208.057 159.213 208.109 159.474 208.21 159.718C208.311 159.961 208.459 160.182 208.646 160.368C208.833 160.554 209.055 160.701 209.298 160.801C209.542 160.9 209.803 160.951 210.067 160.95H210.057ZM241.507 194.29H236.967C236.564 194.29 236.17 194.409 235.835 194.632C235.5 194.856 235.239 195.174 235.085 195.546C234.931 195.918 234.891 196.327 234.97 196.722C235.049 197.117 235.243 197.48 235.528 197.764C235.91 198.146 236.427 198.36 236.967 198.36H241.507C241.91 198.361 242.303 198.241 242.638 198.018C242.973 197.794 243.234 197.476 243.389 197.104C243.543 196.732 243.583 196.323 243.504 195.928C243.425 195.533 243.231 195.17 242.946 194.886C242.757 194.697 242.533 194.547 242.286 194.445C242.039 194.343 241.774 194.29 241.507 194.29ZM253.737 134.86H244.307C244.04 134.86 243.776 134.912 243.53 135.014C243.283 135.116 243.059 135.265 242.871 135.454C242.682 135.643 242.533 135.866 242.431 136.113C242.329 136.359 242.277 136.623 242.277 136.89C242.277 137.157 242.329 137.421 242.431 137.667C242.533 137.914 242.682 138.137 242.871 138.326C243.059 138.515 243.283 138.664 243.53 138.766C243.776 138.868 244.04 138.92 244.307 138.92H253.737C254.275 138.92 254.792 138.706 255.172 138.325C255.553 137.945 255.767 137.428 255.767 136.89C255.767 136.352 255.553 135.835 255.172 135.455C254.792 135.074 254.275 134.86 253.737 134.86ZM276.057 141.35C275.526 141.35 275.018 141.561 274.643 141.936C274.268 142.311 274.057 142.82 274.057 143.35V152.9C274.057 153.43 274.268 153.939 274.643 154.314C275.018 154.689 275.526 154.9 276.057 154.9C276.587 154.9 277.096 154.689 277.471 154.314C277.846 153.939 278.057 153.43 278.057 152.9V143.35C278.056 142.818 277.844 142.308 277.468 141.932C277.09 141.558 276.579 141.348 276.047 141.35H276.057ZM228.607 194.29H219.167C218.764 194.29 218.37 194.409 218.035 194.632C217.7 194.856 217.439 195.174 217.285 195.546C217.131 195.918 217.091 196.327 217.17 196.722C217.249 197.117 217.443 197.48 217.728 197.764C218.11 198.146 218.627 198.36 219.167 198.36H228.607C229.01 198.361 229.403 198.241 229.738 198.018C230.073 197.794 230.334 197.476 230.489 197.104C230.643 196.732 230.683 196.323 230.604 195.928C230.525 195.533 230.331 195.17 230.046 194.886C229.857 194.697 229.633 194.547 229.386 194.445C229.139 194.343 228.874 194.29 228.607 194.29ZM212.097 191.11V185.44C212.097 184.91 211.886 184.401 211.511 184.026C211.136 183.651 210.627 183.44 210.097 183.44C209.566 183.44 209.058 183.651 208.683 184.026C208.308 184.401 208.097 184.91 208.097 185.44V191.11C208.071 192.888 208.649 194.623 209.737 196.03C209.924 196.268 210.162 196.46 210.434 196.591C210.706 196.723 211.005 196.791 211.307 196.79C211.596 196.798 211.883 196.742 212.149 196.628C212.415 196.514 212.652 196.343 212.846 196.128C213.039 195.913 213.183 195.659 213.268 195.382C213.354 195.106 213.378 194.815 213.34 194.528C213.29 194.144 213.129 193.784 212.877 193.49C212.35 192.81 212.071 191.97 212.087 191.11H212.097ZM271.557 134.86H262.127C261.86 134.86 261.596 134.912 261.35 135.014C261.103 135.116 260.879 135.265 260.691 135.454C260.502 135.643 260.353 135.866 260.251 136.113C260.149 136.359 260.097 136.623 260.097 136.89C260.097 137.157 260.149 137.421 260.251 137.667C260.353 137.914 260.502 138.137 260.691 138.326C260.879 138.515 261.103 138.664 261.35 138.766C261.596 138.868 261.86 138.92 262.127 138.92H271.557C272.095 138.92 272.612 138.706 272.992 138.325C273.373 137.945 273.587 137.428 273.587 136.89C273.587 136.352 273.373 135.835 272.992 135.455C272.612 135.074 272.095 134.86 271.557 134.86ZM226.487 138.92H235.917C236.455 138.92 236.972 138.706 237.352 138.325C237.733 137.945 237.947 137.428 237.947 136.89C237.947 136.352 237.733 135.835 237.352 135.455C236.972 135.074 236.455 134.86 235.917 134.86H226.487C226.22 134.86 225.956 134.912 225.71 135.014C225.463 135.116 225.239 135.265 225.051 135.454C224.862 135.643 224.713 135.866 224.611 136.113C224.509 136.359 224.457 136.623 224.457 136.89C224.457 137.157 224.509 137.421 224.611 137.667C224.713 137.914 224.862 138.137 225.051 138.326C225.239 138.515 225.463 138.664 225.71 138.766C225.956 138.868 226.22 138.92 226.487 138.92ZM220.117 136.92C220.117 136.39 219.906 135.881 219.531 135.506C219.156 135.131 218.647 134.92 218.117 134.92H214.117L213.637 135.08C212.503 135.571 211.477 136.281 210.619 137.17C209.761 138.059 209.087 139.109 208.637 140.26C208.538 140.509 208.49 140.774 208.496 141.042C208.501 141.309 208.56 141.573 208.668 141.817C208.777 142.061 208.934 142.281 209.13 142.464C209.325 142.647 209.556 142.788 209.807 142.88C210.037 142.967 210.281 143.011 210.527 143.01C210.937 143.011 211.337 142.886 211.673 142.651C212.01 142.417 212.266 142.085 212.407 141.7C212.885 140.525 213.768 139.559 214.897 138.98H218.137C218.405 138.976 218.669 138.918 218.914 138.81C219.16 138.703 219.381 138.547 219.565 138.352C219.748 138.157 219.89 137.927 219.984 137.676C220.077 137.425 220.119 137.158 220.107 136.89L220.117 136.92ZM276.057 159.45C275.526 159.45 275.018 159.661 274.643 160.036C274.268 160.411 274.057 160.92 274.057 161.45V166.03C274.057 166.56 274.268 167.069 274.643 167.444C275.018 167.819 275.526 168.03 276.057 168.03C276.587 168.03 277.096 167.819 277.471 167.444C277.846 167.069 278.057 166.56 278.057 166.03V161.43C278.058 161.166 278.007 160.904 277.907 160.659C277.806 160.415 277.658 160.193 277.471 160.006C277.284 159.819 277.062 159.671 276.818 159.57C276.573 159.47 276.311 159.419 276.047 159.42L276.057 159.45ZM276.067 125.76H145.567C145.036 125.76 144.528 125.549 144.153 125.174C143.778 124.799 143.567 124.29 143.567 123.76C143.566 123.482 143.623 123.208 143.734 122.953C143.845 122.699 144.008 122.471 144.212 122.282C144.416 122.094 144.657 121.951 144.919 121.861C145.182 121.771 145.46 121.737 145.737 121.76H274.067V82.76H145.567C145.036 82.76 144.528 82.5493 144.153 82.1742C143.778 81.7992 143.567 81.2904 143.567 80.76C143.567 80.2296 143.778 79.7209 144.153 79.3458C144.528 78.9707 145.036 78.76 145.567 78.76H276.067C276.33 78.7597 276.59 78.8113 276.833 78.9117C277.075 79.0121 277.296 79.1594 277.482 79.3452C277.667 79.531 277.815 79.7516 277.915 79.9943C278.016 80.2371 278.067 80.4973 278.067 80.76V123.76C278.066 124.155 277.949 124.542 277.729 124.871C277.51 125.2 277.198 125.456 276.833 125.608C276.59 125.708 276.33 125.76 276.067 125.76Z" fill="#4B354E"/>
<path d="M158.437 117.03C158.174 117.06 157.908 117.038 157.654 116.965C157.4 116.892 157.163 116.769 156.956 116.604C156.75 116.439 156.577 116.235 156.45 116.004C156.322 115.772 156.241 115.518 156.212 115.255C156.182 114.992 156.204 114.726 156.277 114.472C156.35 114.218 156.473 113.981 156.638 113.774C156.803 113.568 157.007 113.396 157.238 113.268C157.47 113.14 157.724 113.059 157.987 113.03L265.737 87.5302C266.248 87.4269 266.779 87.5271 267.218 87.8095C267.656 88.0919 267.967 88.5342 268.084 89.0423C268.202 89.5504 268.116 90.0843 267.846 90.5302C267.575 90.9762 267.142 91.299 266.637 91.4302L158.887 117.03C158.737 117.045 158.587 117.045 158.437 117.03Z" fill="#4B354E"/>
<path d="M266.187 117.03C266.035 117.03 265.884 117.01 265.737 116.97L156.217 91.4301C155.95 91.3816 155.696 91.2794 155.47 91.1297C155.244 90.9801 155.051 90.786 154.903 90.5594C154.754 90.3327 154.653 90.0782 154.606 89.8113C154.558 89.5445 154.566 89.2708 154.627 89.0068C154.689 88.7429 154.804 88.4943 154.965 88.2761C155.125 88.0579 155.329 87.8746 155.563 87.7374C155.796 87.6003 156.056 87.512 156.325 87.4781C156.593 87.4442 156.866 87.4653 157.127 87.5401L266.647 113.08C266.91 113.11 267.164 113.192 267.395 113.32C267.626 113.449 267.829 113.621 267.994 113.829C268.158 114.036 268.28 114.273 268.353 114.527C268.425 114.781 268.447 115.047 268.417 115.31C268.387 115.573 268.305 115.827 268.177 116.058C268.048 116.289 267.876 116.493 267.669 116.657C267.461 116.821 267.224 116.943 266.97 117.016C266.716 117.089 266.45 117.11 266.187 117.08V117.03Z" fill="#4B354E"/>
<path d="M149.417 144.17L195.577 144.67C196.638 144.67 197.655 145.091 198.405 145.842C198.777 146.213 199.071 146.654 199.273 147.139C199.474 147.625 199.577 148.145 199.577 148.67V200.03C199.577 200.555 199.474 201.076 199.273 201.561C199.071 202.046 198.777 202.487 198.405 202.858C198.034 203.23 197.593 203.525 197.108 203.726C196.622 203.927 196.102 204.03 195.577 204.03H186.857" fill="#C8A9CD"/>
<path d="M192.067 198.29H179.327C178.797 198.29 178.288 198.079 177.913 197.704C177.538 197.329 177.327 196.821 177.327 196.29C177.327 195.76 177.538 195.251 177.913 194.876C178.288 194.501 178.797 194.29 179.327 194.29H190.067V138.92H145.567C145.037 138.92 144.528 138.709 144.153 138.334C143.778 137.959 143.567 137.451 143.567 136.92C143.567 136.39 143.778 135.881 144.153 135.506C144.528 135.131 145.037 134.92 145.567 134.92H192.067C192.33 134.92 192.59 134.972 192.833 135.072C193.075 135.173 193.296 135.32 193.482 135.506C193.667 135.691 193.815 135.912 193.915 136.155C194.016 136.397 194.067 136.657 194.067 136.92V196.29C194.067 196.821 193.856 197.329 193.481 197.704C193.106 198.079 192.597 198.29 192.067 198.29Z" fill="#4B354E"/>
<path d="M165.457 202.25L133.217 150.19C133.137 150.06 133.057 149.95 132.977 149.83V112.97H142.037C144.159 112.97 146.194 112.127 147.694 110.627C149.194 109.127 150.037 107.092 150.037 104.97C150.037 102.848 149.194 100.813 147.694 99.3131C146.194 97.8128 144.159 96.97 142.037 96.97H104.887C103.305 96.9694 101.757 97.4383 100.441 98.3173C99.1255 99.1963 98.0998 100.446 97.4942 101.908C96.8886 103.37 96.7303 104.979 97.0393 106.531C97.3483 108.083 98.1107 109.508 99.23 110.627C99.9729 111.37 100.855 111.959 101.825 112.361C102.796 112.763 103.836 112.97 104.887 112.97H113.887V149.87C113.82 149.955 113.76 150.045 113.707 150.14L81.577 202.14C78.377 207.35 81.977 214.14 87.907 214.14H159.047C165.007 214.22 168.597 207.46 165.457 202.25Z" fill="white"/>
<path d="M174.127 204.39L154.227 172.39C153.567 172.71 151.857 173.59 151.227 173.89C146.937 175.89 140.817 178.89 136.147 179.56C126.557 180.98 118.017 180.29 108.467 179.11L91.287 204.31C88.127 209.54 91.677 216.41 97.537 216.41H167.837C173.667 216.44 177.227 209.63 174.127 204.39Z" fill="#FDDB29"/>
<path d="M109.677 190.41C109.139 190.396 108.605 190.503 108.113 190.722C107.621 190.941 107.185 191.266 106.835 191.675C106.485 192.084 106.231 192.566 106.091 193.086C105.951 193.605 105.929 194.15 106.026 194.679C106.155 195.387 106.492 196.041 106.995 196.556C107.497 197.072 108.142 197.425 108.847 197.572C109.551 197.72 110.284 197.654 110.951 197.383C111.618 197.112 112.188 196.648 112.59 196.05C112.992 195.453 113.207 194.75 113.207 194.03C113.218 193.082 112.852 192.169 112.191 191.49C111.529 190.811 110.625 190.423 109.677 190.41ZM145.927 198.17C148.462 198.17 150.517 196.066 150.517 193.47C150.517 190.874 148.462 188.77 145.927 188.77C143.392 188.77 141.337 190.874 141.337 193.47C141.337 196.066 143.392 198.17 145.927 198.17ZM127.137 200.45C126.606 200.436 126.083 200.58 125.635 200.865C125.186 201.15 124.833 201.562 124.621 202.049C124.407 202.536 124.343 203.075 124.438 203.598C124.532 204.121 124.781 204.604 125.152 204.984C125.523 205.365 125.999 205.627 126.519 205.735C127.039 205.843 127.58 205.794 128.072 205.593C128.564 205.393 128.985 205.051 129.282 204.61C129.578 204.17 129.737 203.651 129.737 203.12C129.745 202.422 129.476 201.748 128.989 201.248C128.501 200.747 127.835 200.461 127.137 200.45Z" fill="white"/>
<path d="M107.427 188.47C106.719 188.462 106.025 188.665 105.433 189.052C104.841 189.44 104.377 189.994 104.1 190.646C103.824 191.298 103.748 192.017 103.881 192.712C104.014 193.407 104.351 194.047 104.848 194.55C105.346 195.053 105.982 195.397 106.676 195.538C107.369 195.679 108.089 195.611 108.744 195.342C109.398 195.073 109.958 194.615 110.352 194.028C110.747 193.44 110.957 192.748 110.957 192.04C110.962 191.338 110.758 190.65 110.371 190.064C109.984 189.478 109.432 189.02 108.784 188.748C108.354 188.567 107.893 188.473 107.427 188.47ZM143.677 186.86C142.76 186.852 141.861 187.117 141.094 187.621C140.327 188.125 139.728 188.845 139.371 189.69C139.014 190.536 138.917 191.468 139.091 192.369C139.265 193.269 139.703 194.098 140.349 194.75C140.995 195.401 141.82 195.846 142.719 196.028C143.618 196.21 144.551 196.121 145.399 195.771C146.248 195.422 146.973 194.829 147.484 194.066C147.994 193.304 148.267 192.407 148.267 191.49C148.271 190.578 148.004 189.686 147.501 188.926C146.998 188.166 146.281 187.572 145.44 187.219C144.882 186.985 144.283 186.863 143.677 186.86ZM124.887 198.37C124.368 198.366 123.859 198.516 123.426 198.801C122.992 199.087 122.653 199.494 122.452 199.973C122.251 200.452 122.197 200.979 122.295 201.488C122.394 201.998 122.642 202.466 123.007 202.835C123.28 203.11 123.61 203.321 123.974 203.453C124.338 203.584 124.727 203.634 125.113 203.598C125.498 203.561 125.871 203.44 126.204 203.242C126.537 203.045 126.822 202.776 127.039 202.455C127.256 202.134 127.399 201.769 127.457 201.386C127.516 201.004 127.489 200.613 127.379 200.241C127.269 199.87 127.078 199.528 126.819 199.24C126.561 198.951 126.242 198.723 125.885 198.573C125.569 198.44 125.23 198.371 124.887 198.37Z" fill="#4B354E"/>
<path d="M147.767 102.84H109.127C107.422 102.84 105.786 103.518 104.58 104.723C103.374 105.929 102.697 107.565 102.697 109.27C102.697 110.975 103.374 112.611 104.58 113.817C105.786 115.023 107.422 115.7 109.127 115.7H147.767C149.472 115.7 151.108 115.023 152.314 113.817C153.52 112.611 154.197 110.975 154.197 109.27C154.197 107.565 153.52 105.929 152.314 104.723C151.108 103.518 149.472 102.84 147.767 102.84Z" fill="#FDDB29"/>
<path d="M167.177 201.22L148.427 170.96C148.398 170.827 148.358 170.696 148.307 170.57C148.177 170.269 147.974 170.004 147.717 169.8L134.987 149.26V114.97H142.047C144.675 114.933 147.182 113.863 149.027 111.992C150.872 110.12 151.907 107.598 151.907 104.97C151.907 102.342 150.872 99.8197 149.027 97.9484C147.182 96.077 144.675 95.0071 142.047 94.97H104.887C102.235 94.97 99.6913 96.0235 97.8159 97.8989C95.9405 99.7743 94.887 102.318 94.887 104.97C94.887 107.622 95.9405 110.166 97.8159 112.041C99.6913 113.916 102.235 114.97 104.887 114.97H111.887V149.26L79.887 201.15C78.9548 202.675 78.4451 204.421 78.4099 206.208C78.3748 207.995 78.8155 209.759 79.687 211.32C80.4923 212.803 81.6829 214.041 83.1332 214.903C84.5835 215.765 86.2396 216.22 87.927 216.22H159.067C160.748 216.219 162.397 215.767 163.843 214.91C165.29 214.053 166.479 212.824 167.287 211.35C168.167 209.803 168.62 208.05 168.601 206.27C168.582 204.49 168.09 202.748 167.177 201.22ZM111.477 110.97H104.887C103.296 110.97 101.77 110.338 100.644 109.213C99.5195 108.087 98.8879 106.561 98.8879 104.97C98.8879 103.379 99.5195 101.853 100.644 100.727C101.77 99.6022 103.296 98.9702 104.887 98.97H142.037C143.628 98.97 145.154 99.602 146.28 100.727C147.405 101.853 148.036 103.379 148.036 104.97C148.036 106.561 147.405 108.087 146.28 109.213C145.154 110.338 143.628 110.97 142.037 110.97H111.477ZM115.477 151.18L115.537 151.1C115.81 150.748 115.958 150.315 115.957 149.87V114.97H130.957V149.83C130.957 150.221 131.072 150.603 131.287 150.93L143.357 170.41C130.661 175.085 116.658 174.727 104.217 169.41L115.477 151.18ZM163.847 209.39C163.385 210.243 162.702 210.955 161.87 211.453C161.038 211.951 160.087 212.216 159.117 212.22H87.957C86.9814 212.214 86.0255 211.945 85.1897 211.442C84.3539 210.938 83.669 210.219 83.207 209.36C82.6758 208.423 82.4067 207.36 82.4278 206.284C82.4489 205.207 82.7595 204.155 83.327 203.24L102.117 172.81C115.874 178.891 131.482 179.268 145.517 173.86L163.737 203.29C164.296 204.206 164.599 205.255 164.615 206.328C164.63 207.4 164.358 208.458 163.827 209.39H163.847Z" fill="#4B354E"/>
<path d="M369.957 219.95C369.427 219.95 368.918 219.739 368.543 219.364C368.168 218.989 367.957 218.48 367.957 217.95C367.957 217.42 368.168 216.911 368.543 216.536C368.918 216.161 369.427 215.95 369.957 215.95H386.957C387.487 215.95 387.996 216.161 388.371 216.536C388.746 216.911 388.957 217.42 388.957 217.95C388.957 218.48 388.746 218.989 388.371 219.364C387.996 219.739 387.487 219.95 386.957 219.95H369.957ZM395.947 219.7C395.417 219.7 394.908 219.489 394.533 219.114C394.158 218.739 393.947 218.23 393.947 217.7C393.947 217.17 394.158 216.661 394.533 216.286C394.908 215.911 395.417 215.7 395.947 215.7H402.207C402.737 215.7 403.246 215.911 403.621 216.286C403.996 216.661 404.207 217.17 404.207 217.7C404.207 218.23 403.996 218.739 403.621 219.114C403.246 219.489 402.737 219.7 402.207 219.7H395.937H395.947ZM117.547 219.85C117.017 219.85 116.508 219.639 116.133 219.264C115.758 218.889 115.547 218.38 115.547 217.85C115.547 217.32 115.758 216.811 116.133 216.436C116.508 216.061 117.017 215.85 117.547 215.85C168.807 215.65 220.747 215.75 270.987 215.85C300.557 215.91 331.137 215.97 361.247 215.97C361.777 215.97 362.286 216.181 362.661 216.556C363.036 216.931 363.247 217.44 363.247 217.97C363.247 218.5 363.036 219.009 362.661 219.384C362.286 219.759 361.777 219.97 361.247 219.97C331.127 219.97 300.547 219.91 270.977 219.85C220.747 219.74 168.807 219.64 117.557 219.85H117.547ZM107.827 215.88H103.827C103.297 215.88 102.788 216.091 102.413 216.466C102.038 216.841 101.827 217.35 101.827 217.88C101.827 218.41 102.038 218.919 102.413 219.294C102.788 219.669 103.297 219.88 103.827 219.88H107.777C108.171 219.881 108.556 219.765 108.884 219.547C109.212 219.33 109.469 219.02 109.622 218.657C109.775 218.295 109.817 217.895 109.744 217.508C109.67 217.121 109.484 216.764 109.209 216.483C108.845 216.109 108.349 215.893 107.827 215.88ZM75.7369 219.89C75.2065 219.89 74.6978 219.679 74.3227 219.304C73.9477 218.929 73.7369 218.42 73.7369 217.89C73.7369 217.36 73.9477 216.851 74.3227 216.476C74.6978 216.101 75.2065 215.89 75.7369 215.89C81.9769 215.89 87.9769 215.95 94.4269 216C94.9574 216 95.4661 216.211 95.8412 216.586C96.2162 216.961 96.4269 217.47 96.4269 218C96.4269 218.53 96.2162 219.039 95.8412 219.414C95.4661 219.789 94.9574 220 94.4269 220C87.9869 219.95 81.9869 219.92 75.7469 219.89H75.7369Z" fill="#C8A9CD"/>
<path d="M367.478 217.26C367.21 217.269 366.943 217.223 366.693 217.126C366.443 217.03 366.215 216.884 366.022 216.697C365.83 216.511 365.677 216.287 365.572 216.04C365.468 215.794 365.414 215.528 365.414 215.26C365.414 214.992 365.468 214.727 365.572 214.48C365.677 214.233 365.83 214.01 366.022 213.823C366.215 213.636 366.443 213.49 366.693 213.394C366.943 213.297 367.21 213.252 367.478 213.26L384.478 213.34C385.008 213.34 385.517 213.551 385.892 213.926C386.267 214.301 386.478 214.81 386.478 215.34C386.478 215.871 386.267 216.379 385.892 216.754C385.517 217.129 385.008 217.34 384.478 217.34L367.478 217.26ZM393.457 216.91C392.927 216.91 392.418 216.699 392.043 216.324C391.668 215.949 391.457 215.441 391.457 214.91C391.457 214.38 391.668 213.871 392.043 213.496C392.418 213.121 392.927 212.91 393.457 212.91H399.717C400.247 212.91 400.756 213.121 401.131 213.496C401.506 213.871 401.717 214.38 401.717 214.91C401.717 215.441 401.506 215.949 401.131 216.324C400.756 216.699 400.247 216.91 399.717 216.91H393.457ZM115.067 216.14C114.537 216.14 114.028 215.929 113.653 215.554C113.278 215.179 113.067 214.671 113.067 214.14C113.067 213.61 113.278 213.101 113.653 212.726C114.028 212.351 114.537 212.14 115.067 212.14C166.327 212.32 218.277 212.57 268.517 212.81C298.577 212.957 328.657 213.097 358.757 213.23C359.287 213.23 359.796 213.441 360.171 213.816C360.546 214.191 360.757 214.7 360.757 215.23C360.757 215.761 360.546 216.269 360.171 216.644C359.796 217.019 359.287 217.23 358.757 217.23C328.657 217.103 298.577 216.963 268.517 216.81C218.277 216.57 166.327 216.32 115.077 216.14H115.067ZM101.867 216.09C101.337 216.09 100.828 215.879 100.453 215.504C100.078 215.129 99.867 214.621 99.867 214.09C99.867 213.56 100.078 213.051 100.453 212.676C100.828 212.301 101.337 212.09 101.867 212.09H105.347C105.877 212.09 106.386 212.301 106.761 212.676C107.136 213.051 107.347 213.56 107.347 214.09C107.347 214.621 107.136 215.129 106.761 215.504C106.386 215.879 105.877 216.09 105.347 216.09H101.867ZM73.247 215.97C72.7165 215.977 72.2052 215.772 71.8254 215.402C71.4457 215.032 71.2286 214.526 71.222 213.995C71.2153 213.465 71.4197 212.953 71.7901 212.574C72.1605 212.194 72.6665 211.977 73.197 211.97C79.417 211.78 85.397 211.81 92.017 212.05C92.5471 212.069 93.048 212.298 93.4098 212.686C93.7716 213.074 93.9648 213.59 93.947 214.12C93.9279 214.65 93.6993 215.151 93.3112 215.513C92.9231 215.875 92.4073 216.068 91.877 216.05C85.337 215.81 79.447 215.79 73.317 215.97H73.247Z" fill="#4B354E"/>
</g>
</g>
<defs>
<clipPath id="clip0_47_232">
<rect width="480" height="220" fill="white"/>
</clipPath>
</defs>
</svg>
