<svg width="480" height="220" viewBox="0 0 480 220" fill="none" xmlns="http://www.w3.org/2000/svg">
<mask id="mask0_47_309" style="mask-type:luminance" maskUnits="userSpaceOnUse" x="0" y="0" width="480" height="220">
<path d="M0 0H480V220H0V0Z" fill="white"/>
</mask>
<g mask="url(#mask0_47_309)">
<path d="M407.843 75.86C409.853 76.156 411.751 76.97 413.353 78.22C414.977 79.559 416.217 81.3048 416.946 83.2795C417.675 85.2541 417.867 87.3868 417.503 89.46C416.843 92.94 414.863 95.51 417.583 97.77C419.893 99.7 423.293 97.45 424.583 94.77C425.443 92.94 425.583 90.83 425.643 87.82C425.783 73.98 438.093 61.39 451.933 60.93C459.813 60.67 467.453 64.37 472.773 70.15C465.843 72.34 436.323 100.62 433.653 101.77C434.393 99.08 451.463 67.77 445.543 71.58C441.543 83.05 434.443 93.67 430.173 104.69C418.723 114.33 407.443 124.15 396.173 134C397.183 115.05 402.443 93.96 407.843 75.86ZM336.113 168.08C337.306 166.075 338.072 163.845 338.363 161.53C342.593 157.92 338.543 170.48 337.163 171.53C338.223 174.85 340.063 177.82 341.413 181C347.723 175.55 354.203 170.28 360.463 164.75C358.223 140.85 361.613 116.62 366.283 93.15C364.308 93.5478 362.432 94.3355 360.764 95.467C359.097 96.5985 357.672 98.0512 356.573 99.74C354.073 103.36 352.813 107.67 351.853 111.95C349.743 121.382 348.932 131.058 349.443 140.71C349.623 144.09 349.173 148.6 345.843 149.25C342.513 149.9 340.373 145.86 340.463 142.58C340.553 139.3 341.793 135.9 340.693 132.8C339.693 129.96 336.913 128.36 333.893 128.04C332.003 139.6 331.253 159.02 336.113 168.08ZM368.913 93.36C364.763 109.13 363.633 125.48 362.913 141.71C365.913 140.02 367.603 133.43 370.843 133.54C373.343 134.84 364.443 144.32 362.843 145.29C362.843 150.99 363.033 156.63 363.313 162.29C373.213 153.74 383.053 145.12 393.013 136.65C393.843 116.86 399.473 94.56 405.693 75.7C404.249 75.7294 402.824 76.0314 401.493 76.59C395.853 79.03 393.053 85.45 391.993 91.51C390.933 97.57 389.913 103.35 387.653 109.07C386.133 112.91 383.383 116.07 380.583 114.75C379.349 114.136 378.326 113.167 377.645 111.968C376.964 110.769 376.657 109.395 376.763 108.02C377.043 105.29 377.903 102.53 377.333 99.85C376.523 96.07 372.833 93.42 368.973 93.03C368.963 93.142 368.943 93.252 368.913 93.36ZM366.853 162.91C359.513 169.26 352.283 175.74 345.053 182.22C346.48 183.922 348.094 185.458 349.863 186.8C355.874 186.396 361.795 185.126 367.443 183.03C368.823 182.51 369.443 184.72 368.053 185.24C363.223 187.073 358.185 188.302 353.053 188.9C368.894 198.332 387.63 201.667 405.753 198.28C406.133 198.21 406.526 198.295 406.845 198.514C407.163 198.733 407.382 199.07 407.453 199.45C407.043 194.05 402.713 188.88 397.303 188.67C394.113 188.55 390.483 188.5 387.963 186.53C385.683 184.75 385.903 182.33 387.903 180.23C389.903 178.13 392.773 178.38 395.663 178.68C405.973 179.74 414.963 189.59 425.013 187.06C426.756 186.579 428.371 185.716 429.741 184.535C431.11 183.354 432.201 181.884 432.933 180.23C411.823 171.4 389.943 162.97 366.853 162.91ZM447.163 116.48C451.163 114.8 451.763 115.58 456.083 115.06C469.823 113.4 480.993 99.79 479.933 85.98C479.45 80.6987 477.383 75.6865 474.003 71.6C463.103 77.41 452.233 88.97 443.163 96.79C445.573 97.12 467.513 90.79 463.283 95.61C455.363 96.78 447.483 98.18 439.643 99.72C426.143 111.02 412.883 122.6 399.643 134.23C405.493 135.01 411.383 135.64 417.273 136.04C421.4 133.248 425.811 130.902 430.433 129.04C436.203 130.04 422.103 135.13 420.803 136.35C435.993 137.08 451.673 142.66 465.673 148.2C466.315 146.654 466.622 144.989 466.574 143.315C466.526 141.641 466.123 139.997 465.393 138.49C463.533 134.98 458.773 130.58 453.113 130.11C449.323 129.79 444.783 130.06 442.583 126.95C440.093 123.34 443.153 118.16 447.163 116.48ZM406.463 200.96C384.463 205.39 358.783 200.47 342.463 184.5C339.463 187.11 336.373 189.67 333.403 192.34C331.913 193.68 329.703 191.45 331.213 190.14C333.853 187.85 336.433 185.49 339.033 183.14C334.964 175.895 332.139 168.019 330.673 159.84C329.893 158.17 329.613 134.55 331.673 128.04C330.214 128.175 328.801 128.625 327.533 129.36C323.073 132.03 320.763 137.18 319.333 142.18C314.463 159.18 317.333 178.78 328.693 192.3C327.883 193.02 327.213 193.65 326.803 194.08C321.673 197.79 320.083 199.17 316.123 202.53C314.323 203.98 310.773 206.59 307.903 209.23C306.467 210.439 305.163 211.797 304.013 213.28C304.123 213.14 304.233 213.01 304.333 212.87C303.763 213.68 302.763 214.36 302.643 215.4C302.602 215.744 302.648 216.093 302.778 216.414C302.908 216.735 303.118 217.018 303.387 217.236C303.656 217.454 303.976 217.6 304.317 217.66C304.658 217.721 305.009 217.694 305.337 217.582C305.776 217.433 306.152 217.14 306.403 216.75C311.553 209.4 330.403 196.7 332.643 195.44C344.123 206.32 362.743 219.25 381.893 218.44C387.653 218.21 393.543 217.27 398.513 214.34C403.483 211.41 407.383 206.2 407.513 200.44V199.93C407.486 200.197 407.366 200.447 407.174 200.635C406.982 200.823 406.731 200.938 406.463 200.96ZM431.683 140.51C420.013 138.79 407.933 138.51 396.383 137.06C387.663 144.746 378.926 152.412 370.173 160.06C374.556 160.289 378.921 160.787 383.243 161.55C384.843 159.88 406.933 144.88 402.583 153.48C397.583 156.29 392.493 159.09 387.703 162.29C390.253 162.15 422.293 171.56 433.803 177.43C433.99 176.442 434.037 175.432 433.943 174.43C433.608 171.623 432.325 169.014 430.307 167.034C428.289 165.054 425.656 163.821 422.843 163.54C419.003 163.25 414.953 162.28 414.353 160.23C413.493 157.23 414.743 155.63 417.583 154.4C420.423 153.17 424.533 153.4 427.583 153.88C433.983 154.93 437.263 155.42 443.663 156.47C449.873 157.47 457.023 158.26 461.713 154.07C463.114 152.8 464.258 151.272 465.083 149.57C459.003 148.85 434.843 139.26 431.683 140.51Z" fill="#F2EBF4"/>
<path d="M141.443 215.12C127.003 214.6 116.523 213.6 103.863 213.93C85.963 214.44 68.283 221.14 50.563 218.49C33.0299 215.783 17.2576 206.308 6.63297 192.1C-15.497 159.6 22.383 147.6 52.253 149.44C85.683 156.76 113.363 177.68 134.253 203.53C126.143 198.01 116.643 194.92 107.093 192.98C104.863 189.56 102.093 186.5 100.153 182.9C99.9095 182.497 99.5184 182.204 99.0628 182.085C98.6072 181.965 98.123 182.028 97.713 182.26C95.133 185.26 100.813 189.26 102.143 192.11C98.333 191.55 94.493 191.18 90.643 190.93C83.463 183.81 76.273 176.1 73.523 165.93C72.903 163.93 69.743 164.8 70.393 166.79C73.388 176.113 78.9634 184.396 86.473 190.68C75.763 190.17 65.003 190.2 54.393 188.6C48.913 183.54 42.613 178.84 39.723 171.6C31.563 168.48 46.103 186.43 48.323 187.54C37.345 184.969 26.8261 180.729 17.133 174.97C7.55297 176.68 40.133 188.45 42.863 188.66C49.6973 190.573 56.6881 191.875 63.753 192.55C61.043 192.88 34.863 200.96 45.883 202.88C54.733 197.62 65.353 196.54 74.713 193.39C87.893 194.23 101.373 193.79 114.063 197.97C111.143 197.54 90.283 208.17 100.273 208.66C106.863 204.21 115.753 197.97 123.843 201.75C130.493 204.79 137.133 209.05 141.443 215.12ZM62.063 149.28C91.303 158.98 117.463 177.73 136.713 201.72C129.433 187.15 121.453 172.67 110.943 160.14C103.459 157.921 95.7755 156.437 88.003 155.71C85.733 155.51 85.723 151.95 88.003 152.16C94.4186 152.723 100.775 153.831 107.003 155.47C99.0778 146.312 90.4734 137.764 81.263 129.9C73.783 128.9 66.103 126.97 58.393 128.24C57.9524 128.236 57.5312 128.058 57.2206 127.745C56.9099 127.433 56.7348 127.011 56.733 126.57C59.733 122.31 71.033 125.07 75.993 125.46C67.2165 118.253 58.0312 111.558 48.483 105.41C45.163 97.7601 62.843 112.41 64.803 113.28C64.513 91.5001 67.713 98.9401 67.083 114.91C75.0525 120.513 82.6857 126.581 89.943 133.08C89.383 130.92 81.383 111 88.113 116.57C89.643 123.46 92.003 130.15 94.113 136.87C97.613 140.203 101.006 143.623 104.293 147.13C103.893 143.13 99.833 135.13 102.403 132.13C105.763 132.53 104.703 140.32 106.183 143.13C107.103 152.8 114.863 158.59 119.983 166.24C120.083 164.55 119.073 153.75 122.203 158.04C119.853 169.16 127.463 176.83 132.473 185.91C136.209 192.544 139.682 199.322 142.883 206.23C132.933 165.116 113.786 126.794 86.883 94.1501C53.003 46.5301 -15.807 110.15 62.063 149.28ZM86.303 88.8601C114.173 121.92 135.553 161.25 145.863 203.36C145.393 195.24 144.993 187.11 144.463 178.99C142.463 176.22 140.733 173.32 138.233 170.83C137.103 165.01 143.333 172 144.093 173.93C143.568 167.021 142.677 160.145 141.423 153.33C136.633 149.12 132.043 144.57 126.533 141.24C124.813 140.13 126.383 137.41 128.143 138.49C132.43 141.152 136.463 144.202 140.193 147.6C138.664 141.179 136.469 134.935 133.643 128.97C127.643 123.77 121.583 118.36 114.213 114.97C110.763 107.14 129.583 121.34 131.033 122.97C128.393 116.81 125.833 110.56 123.033 104.44C116.633 101.06 110.373 97.1901 103.203 95.4401C97.363 87.4401 118.643 97.8201 120.613 99.3001C116.513 90.9501 111.773 82.9701 105.453 76.0101C105.143 65.5701 123.583 97.7901 124.253 100.33C125.025 96.1793 125.45 91.9714 125.523 87.7501C130.803 80.7501 127.053 102.47 126.243 104.44C129.474 111.169 132.588 117.953 135.583 124.79C136.223 122.35 139.903 89.7901 143.103 97.4301C140.033 107.92 138.563 118.8 137.693 129.64C141.952 139.02 144.654 149.031 145.693 159.28C147.143 157.38 153.693 130.58 155.513 137.05C151.943 146.48 149.813 156.46 146.443 165.9C147.213 173.46 147.743 181.05 148.193 188.63C148.813 186.82 155.503 170.19 156.313 177.69C152.923 183.07 150.903 189.2 148.533 194.92C148.813 201.73 149.283 208.55 149.903 215.31H157.153C195.383 76.6 89.003 19.8701 86.303 88.8601ZM146.003 215.24H146.613C146.591 215.171 146.575 215.101 146.563 215.03C146.389 215.131 146.2 215.202 146.003 215.24Z" fill="#F2EBF4"/>
<path d="M292.263 36.82C291.834 36.8198 291.416 36.6927 291.059 36.4548C290.703 36.2169 290.425 35.8789 290.26 35.4833C290.095 35.0876 290.051 34.6521 290.134 34.2315C290.216 33.811 290.421 33.4243 290.723 33.12L303.003 20.84C303.204 20.638 303.444 20.4777 303.707 20.3683C303.97 20.2589 304.253 20.2026 304.538 20.2026C304.823 20.2026 305.106 20.2589 305.369 20.3683C305.632 20.4777 305.872 20.638 306.073 20.84C306.376 21.1442 306.582 21.531 306.666 21.952C306.749 22.3729 306.707 22.8092 306.543 23.206C306.434 23.4692 306.274 23.7084 306.073 23.91L293.793 36.19C293.592 36.3904 293.353 36.5492 293.091 36.6573C292.828 36.7654 292.547 36.8207 292.263 36.82ZM276.703 29.24C276.274 29.2394 275.855 29.1118 275.498 28.8733C275.141 28.6349 274.863 28.2963 274.698 27.9C274.589 27.6369 274.533 27.3548 274.533 27.07V14.07C274.533 13.4945 274.762 12.9426 275.169 12.5356C275.576 12.1286 276.127 11.9 276.703 11.9C277.278 11.9 277.83 12.1286 278.237 12.5356C278.644 12.9426 278.873 13.4945 278.873 14.07V27.07C278.873 27.6455 278.644 28.1975 278.237 28.6044C277.83 29.0114 277.278 29.24 276.703 29.24ZM310.703 53.11H297.703C297.127 53.11 296.576 52.8814 296.169 52.4744C295.762 52.0675 295.533 51.5155 295.533 50.94C295.533 50.3645 295.762 49.8126 296.169 49.4056C296.576 48.9986 297.127 48.77 297.703 48.77H310.703C311.278 48.77 311.83 48.9986 312.237 49.4056C312.644 49.8126 312.873 50.3645 312.873 50.94C312.873 51.5155 312.644 52.0675 312.237 52.4744C311.83 52.8814 311.278 53.11 310.703 53.11Z" fill="#C7A9CD"/>
<path d="M289.373 33.93C289.658 33.9311 289.94 33.875 290.203 33.765C290.466 33.6551 290.704 33.4936 290.903 33.29L303.183 21.02C303.486 20.7159 303.692 20.329 303.776 19.908C303.859 19.4871 303.817 19.0508 303.653 18.654C303.432 18.1224 303.01 17.6999 302.478 17.479C302.081 17.3143 301.645 17.2711 301.224 17.3549C300.803 17.4388 300.416 17.6459 300.113 17.95L287.833 30.22C287.532 30.5254 287.328 30.9127 287.246 31.3335C287.164 31.7543 287.208 32.1899 287.372 32.5858C287.537 32.9817 287.814 33.3204 288.17 33.5595C288.526 33.7986 288.944 33.9275 289.373 33.93ZM273.803 26.34C274.232 26.3403 274.652 26.2131 275.009 25.9746C275.365 25.736 275.643 25.3968 275.807 25C275.916 24.737 275.973 24.455 275.973 24.17V11.17C275.973 10.5945 275.744 10.0425 275.337 9.63558C274.93 9.22862 274.378 9 273.803 9C273.227 9 272.675 9.22862 272.269 9.63558C271.862 10.0425 271.633 10.5945 271.633 11.17V24.17C271.633 24.455 271.689 24.7371 271.798 25.0004C271.907 25.2637 272.067 25.5029 272.269 25.7044C272.47 25.9059 272.709 26.0658 272.973 26.1748C273.236 26.2839 273.518 26.34 273.803 26.34ZM292.613 48.04C292.613 48.6155 292.842 49.1675 293.249 49.5744C293.655 49.9814 294.207 50.21 294.783 50.21H307.783C308.358 50.21 308.91 49.9814 309.317 49.5744C309.724 49.1675 309.953 48.6155 309.953 48.04C309.953 47.4645 309.724 46.9125 309.317 46.5056C308.91 46.0986 308.358 45.87 307.783 45.87H294.783C294.207 45.87 293.655 46.0986 293.249 46.5056C292.842 46.9125 292.613 47.4645 292.613 48.04Z" fill="#4B344D"/>
<path d="M242.383 185.26C242.477 182.625 241.606 180.047 239.933 178.01C238.383 175.91 236.413 174.16 234.683 172.2C228.574 165.118 225.461 155.937 226.003 146.6C225.983 144.038 226.717 141.528 228.113 139.38C229.633 137.38 232.513 136.12 234.823 137.19C235.565 137.575 236.216 138.115 236.734 138.772C237.251 139.429 237.622 140.188 237.823 141C238.214 142.619 238.373 144.286 238.293 145.95L238.003 122.1C238.003 118.97 238.003 115.68 239.453 112.92C240.903 110.16 244.453 108.23 247.293 109.59C248.097 110.031 248.793 110.645 249.332 111.386C249.871 112.128 250.24 112.979 250.413 113.88C250.754 115.683 250.822 117.527 250.613 119.35L249.373 139.44C249.119 137.299 249.214 135.131 249.653 133.02C249.881 131.967 250.355 130.983 251.036 130.149C251.717 129.314 252.587 128.653 253.573 128.22C256.753 127.06 260.333 129.49 261.663 132.6C262.993 135.71 262.663 139.26 262.333 142.6C261.923 140.369 261.923 138.081 262.333 135.85C262.553 134.735 263.065 133.698 263.817 132.846C264.569 131.994 265.534 131.357 266.613 131C269.533 130.28 272.513 132.57 273.613 135.36C274.713 138.15 274.443 141.28 274.743 144.64C274.461 143.532 274.421 142.377 274.625 141.252C274.828 140.127 275.271 139.059 275.923 138.12C276.592 137.205 277.528 136.52 278.604 136.162C279.679 135.804 280.839 135.789 281.923 136.12C282.767 136.5 283.515 137.063 284.114 137.769C284.712 138.475 285.146 139.305 285.383 140.2C285.834 141.993 286.015 143.843 285.923 145.69C285.923 156.21 285.773 167.15 281.163 176.6C279.753 179.49 277.883 182.54 278.563 185.68C279.034 187.156 279.675 188.572 280.473 189.9C282.933 194.99 282.343 200.95 281.703 206.56L245.113 207.8C242.963 207.87 240.583 207.86 238.983 206.43C237.573 205.16 237.183 203.13 236.903 201.25C236.441 198.947 236.313 196.589 236.523 194.25C236.634 193.074 236.98 191.932 237.542 190.892C238.104 189.853 238.869 188.937 239.793 188.2C240.423 187.821 241.016 187.383 241.563 186.89C241.979 186.432 242.263 185.868 242.383 185.26Z" fill="white"/>
<path d="M233.903 171.601L228.143 158.161V146.491C228.143 145.966 228.246 145.445 228.447 144.96C228.648 144.475 228.943 144.034 229.314 143.662C229.686 143.291 230.127 142.996 230.612 142.795C231.097 142.594 231.618 142.491 232.143 142.491C234.293 142.491 235.673 144.291 236.143 145.051V154.561H240.143V118.311C240.143 117.242 240.568 116.217 241.323 115.461C242.079 114.705 243.104 114.281 244.173 114.281C245.242 114.281 246.267 114.705 247.023 115.461C247.778 116.217 248.203 117.242 248.203 118.311V144.481H252.203V136.421C252.203 135.352 252.628 134.327 253.383 133.571C254.139 132.815 255.164 132.391 256.233 132.391C257.302 132.391 258.327 132.815 259.083 133.571C259.838 134.327 260.263 135.352 260.263 136.421V146.481H264.263V140.481C264.249 139.697 264.466 138.926 264.887 138.264C265.308 137.603 265.915 137.08 266.631 136.761C267.347 136.441 268.141 136.339 268.915 136.467C269.689 136.595 270.408 136.947 270.983 137.481V83.9209H214.453V180.051H241.003L233.903 171.601Z" fill="#C7A9CD"/>
<path d="M289.003 193.73H244.503V211.01H289.003V193.73ZM276.463 50.68H190.823C190.466 50.7019 190.108 50.6505 189.772 50.5291C189.435 50.4077 189.127 50.2188 188.866 49.974C188.606 49.7286 188.399 49.4327 188.257 49.1045C188.115 48.7763 188.041 48.4225 188.041 48.065C188.041 47.7072 188.114 47.3533 188.256 47.025C188.398 46.6967 188.606 46.4009 188.867 46.1559C189.127 45.9109 189.435 45.7219 189.772 45.6005C190.108 45.4791 190.466 45.4278 190.823 45.45H276.463C276.82 45.4279 277.178 45.4791 277.514 45.6005C277.851 45.722 278.159 45.911 278.419 46.156C278.68 46.401 278.888 46.6968 279.03 47.0251C279.172 47.3534 279.245 47.7073 279.245 48.065C279.245 48.4226 279.172 48.7766 279.03 49.1049C278.888 49.4332 278.68 49.7289 278.419 49.9739C278.159 50.2189 277.851 50.4079 277.514 50.5294C277.178 50.6508 276.82 50.702 276.463 50.68ZM226.803 194.23H191.233C191.027 194.23 190.823 194.189 190.632 194.11C190.442 194.032 190.269 193.916 190.123 193.77C189.977 193.624 189.861 193.451 189.783 193.261C189.704 193.07 189.663 192.866 189.663 192.66C189.663 192.454 189.704 192.25 189.783 192.059C189.861 191.869 189.977 191.696 190.123 191.55C190.269 191.404 190.442 191.288 190.632 191.209C190.823 191.131 191.027 191.09 191.233 191.09H226.803C227.009 191.09 227.213 191.131 227.404 191.209C227.594 191.288 227.767 191.404 227.913 191.55C228.059 191.696 228.175 191.869 228.254 192.059C228.332 192.25 228.373 192.454 228.373 192.66C228.373 192.866 228.332 193.07 228.254 193.261C228.175 193.451 228.059 193.624 227.913 193.77C227.767 193.916 227.594 194.032 227.404 194.11C227.213 194.189 227.009 194.23 226.803 194.23Z" fill="#FFC800"/>
<path d="M272.443 40.46H196.193C193.775 40.4626 191.457 41.4243 189.747 43.1341C188.037 44.8438 187.076 47.162 187.073 49.58L186.823 192.66C186.823 195.077 187.782 197.395 189.491 199.105C191.199 200.815 193.516 201.777 195.933 201.78H226.053C226.382 201.801 226.712 201.755 227.022 201.644C227.332 201.533 227.616 201.359 227.856 201.133C228.097 200.908 228.289 200.636 228.42 200.333C228.551 200.031 228.619 199.705 228.618 199.375C228.618 198.878 228.465 198.394 228.179 197.988C227.894 197.582 227.489 197.274 227.022 197.107C226.712 196.995 226.382 196.949 226.053 196.97H195.933C194.792 196.967 193.698 196.512 192.892 195.704C192.086 194.896 191.633 193.801 191.633 192.66V191.04H226.133C226.462 191.061 226.792 191.015 227.102 190.904C227.412 190.792 227.696 190.619 227.937 190.393C228.177 190.168 228.369 189.896 228.5 189.593C228.631 189.291 228.698 188.965 228.698 188.635C228.698 188.138 228.545 187.654 228.259 187.248C227.974 186.842 227.569 186.534 227.102 186.367C226.792 186.255 226.462 186.209 226.133 186.23H191.633L191.883 58.42H276.743L276.493 118.17C276.472 118.499 276.519 118.829 276.63 119.139C276.741 119.449 276.915 119.733 277.14 119.974C277.479 120.337 277.922 120.586 278.409 120.686C278.895 120.787 279.401 120.735 279.856 120.537C280.311 120.338 280.694 120.005 280.952 119.581C281.211 119.158 281.334 118.665 281.303 118.17L281.553 49.58C281.55 47.1637 280.59 44.8471 278.882 43.1376C277.175 41.4281 274.859 40.4653 272.443 40.46ZM191.883 53.6V49.6C191.883 48.4569 192.337 47.3606 193.145 46.5523C193.954 45.744 195.05 45.29 196.193 45.29H272.443C273.584 45.2926 274.678 45.7479 275.484 46.5559C276.29 47.3639 276.743 48.4586 276.743 49.6V53.6H191.883Z" fill="#4B344D"/>
<path d="M202.653 171.6H216.783C217.431 171.543 218.034 171.246 218.473 170.766C218.912 170.287 219.156 169.66 219.155 169.01C219.155 168.36 218.912 167.733 218.472 167.254C218.033 166.775 217.431 166.477 216.783 166.42H207.473V73.74H261.003V109.31C260.981 109.639 261.027 109.969 261.138 110.279C261.249 110.59 261.423 110.874 261.649 111.114C261.875 111.354 262.148 111.545 262.45 111.676C262.752 111.807 263.078 111.875 263.408 111.875C263.737 111.875 264.063 111.807 264.366 111.676C264.668 111.545 264.94 111.354 265.166 111.114C265.391 110.873 265.564 110.589 265.676 110.279C265.787 109.969 265.834 109.639 265.813 109.31V68.6H202.653V171.6ZM272.443 196.02C272.443 196.416 272.56 196.802 272.779 197.131C272.999 197.46 273.311 197.717 273.677 197.868C273.95 197.98 274.245 198.03 274.54 198.015C274.835 198 275.123 197.92 275.384 197.781C275.644 197.642 275.871 197.447 276.047 197.21C276.224 196.973 276.345 196.7 276.404 196.41C276.463 196.12 276.456 195.82 276.385 195.533C276.313 195.246 276.179 194.978 275.991 194.75C275.803 194.521 275.567 194.337 275.299 194.21C275.031 194.084 274.739 194.019 274.443 194.02C273.913 194.02 273.404 194.231 273.029 194.606C272.654 194.981 272.443 195.49 272.443 196.02ZM264.383 196.02C264.383 196.416 264.5 196.802 264.719 197.131C264.939 197.46 265.251 197.717 265.617 197.868C265.89 197.98 266.185 198.03 266.48 198.015C266.775 198 267.063 197.92 267.324 197.781C267.584 197.642 267.811 197.447 267.987 197.21C268.164 196.973 268.285 196.7 268.344 196.41C268.403 196.12 268.396 195.82 268.325 195.533C268.253 195.246 268.119 194.978 267.931 194.75C267.743 194.521 267.507 194.337 267.239 194.21C266.971 194.084 266.679 194.019 266.383 194.02C265.853 194.02 265.344 194.231 264.969 194.606C264.594 194.981 264.383 195.49 264.383 196.02Z" fill="#4B344D"/>
<path d="M276.463 141.66C276.463 140.591 276.888 139.566 277.643 138.81C278.399 138.055 279.424 137.63 280.493 137.63C281.562 137.63 282.587 138.055 283.343 138.81C284.098 139.566 284.523 140.591 284.523 141.66V155.75C284.523 164.45 281.303 170.69 278.933 175.24C277.503 178.02 276.463 180.03 276.463 181.92V185.92H244.253V181.2L233.903 168.78L228.143 155.34V143.67C228.143 143.145 228.246 142.624 228.447 142.139C228.648 141.654 228.943 141.213 229.314 140.841C229.686 140.47 230.127 140.175 230.612 139.974C231.097 139.773 231.618 139.67 232.143 139.67C234.293 139.67 235.673 141.47 236.143 142.23V151.74H240.143V115.49C240.143 114.421 240.568 113.396 241.323 112.64C242.079 111.885 243.104 111.46 244.173 111.46C245.242 111.46 246.267 111.885 247.023 112.64C247.778 113.396 248.203 114.421 248.203 115.49V141.66H252.203V133.6C252.203 132.531 252.628 131.506 253.383 130.75C254.139 129.995 255.164 129.57 256.233 129.57C257.302 129.57 258.327 129.995 259.083 130.75C259.838 131.506 260.263 132.531 260.263 133.6V143.66H264.263V137.66C264.263 136.591 264.688 135.566 265.443 134.81C266.199 134.055 267.224 133.63 268.293 133.63C269.362 133.63 270.387 134.055 271.143 134.81C271.898 135.566 272.323 136.591 272.323 137.66V145.71H276.323L276.463 141.66ZM268.413 129.6C266.818 129.599 265.258 130.073 263.933 130.96C263.548 129.837 262.918 128.814 262.091 127.963C261.263 127.112 260.258 126.454 259.146 126.037C258.035 125.621 256.845 125.455 255.662 125.552C254.478 125.65 253.332 126.007 252.303 126.6V115.76C252.332 113.77 251.639 111.836 250.352 110.317C249.065 108.799 247.271 107.798 245.303 107.5C244.165 107.351 243.008 107.446 241.91 107.78C240.811 108.114 239.797 108.678 238.934 109.435C238.072 110.193 237.381 111.126 236.908 112.171C236.436 113.217 236.192 114.352 236.193 115.5V136.74C234.905 135.97 233.423 135.585 231.923 135.63C229.802 135.738 227.804 136.663 226.349 138.209C224.893 139.756 224.092 141.806 224.113 143.93V156.17L230.313 170.65L240.213 182.65V185.95C239.688 185.95 239.167 186.053 238.682 186.254C238.196 186.455 237.755 186.749 237.384 187.121C237.012 187.492 236.718 187.934 236.517 188.419C236.316 188.904 236.213 189.425 236.213 189.95V206.05C236.213 206.58 236.424 207.089 236.799 207.464C237.174 207.839 237.683 208.05 238.213 208.05C238.743 208.05 239.252 207.839 239.627 207.464C240.002 207.089 240.213 206.58 240.213 206.05V191.32C240.215 190.963 240.358 190.622 240.611 190.371C240.864 190.12 241.206 189.979 241.563 189.98H279.143C279.498 189.98 279.839 190.121 280.09 190.372C280.342 190.624 280.483 190.965 280.483 191.32V206.08C280.483 206.61 280.694 207.119 281.069 207.494C281.444 207.869 281.953 208.08 282.483 208.08C283.013 208.08 283.522 207.869 283.897 207.494C284.272 207.119 284.483 206.61 284.483 206.08V189.98C284.483 188.919 284.062 187.902 283.311 187.152C282.561 186.401 281.544 185.98 280.483 185.98V181.98C280.483 181.07 281.483 179.17 282.483 177.15C284.883 172.5 288.483 165.48 288.483 155.81V141.94C288.51 139.887 287.771 137.899 286.41 136.362C285.049 134.825 283.164 133.851 281.123 133.63C279.297 133.471 277.472 133.944 275.953 134.97C275.399 133.409 274.378 132.057 273.029 131.096C271.681 130.136 270.069 129.613 268.413 129.6Z" fill="#4B344D"/>
<path d="M147.093 140.91C147.098 140.936 147.098 140.963 147.093 140.99C147.093 141.05 147.093 140.99 147.043 140.65V140.7C147.083 140.8 147.083 140.85 147.093 140.91Z" fill="white"/>
<path d="M372.233 219.16C371.703 219.159 371.195 218.948 370.82 218.573C370.445 218.199 370.234 217.69 370.233 217.16C370.233 216.63 370.444 216.121 370.819 215.746C371.194 215.371 371.703 215.16 372.233 215.16H389.233C389.763 215.16 390.272 215.371 390.647 215.746C391.022 216.121 391.233 216.63 391.233 217.16C391.233 217.691 391.022 218.199 390.647 218.574C390.272 218.949 389.763 219.16 389.233 219.16H372.233ZM398.223 218.84C397.693 218.839 397.185 218.628 396.81 218.253C396.435 217.879 396.224 217.37 396.223 216.84C396.223 216.31 396.434 215.801 396.809 215.426C397.184 215.051 397.693 214.84 398.223 214.84H404.483C405.013 214.84 405.522 215.051 405.897 215.426C406.272 215.801 406.483 216.31 406.483 216.84C406.483 217.371 406.272 217.879 405.897 218.254C405.522 218.629 405.013 218.84 404.483 218.84H398.223ZM119.823 219.76C119.292 219.76 118.784 219.549 118.409 219.174C118.034 218.799 117.823 218.291 117.823 217.76C117.823 217.23 118.034 216.721 118.409 216.346C118.784 215.971 119.292 215.76 119.823 215.76C171.083 215.42 223.023 215.38 273.263 215.34C302.833 215.34 333.413 215.34 363.523 215.21C364.053 215.21 364.562 215.421 364.937 215.796C365.312 216.171 365.523 216.68 365.523 217.21C365.523 217.741 365.312 218.249 364.937 218.624C364.562 218.999 364.053 219.21 363.523 219.21C333.403 219.3 302.833 219.32 273.253 219.34C223.023 219.34 171.083 219.42 119.833 219.76H119.823ZM106.623 219.84C106.092 219.84 105.584 219.629 105.209 219.254C104.834 218.879 104.623 218.371 104.623 217.84C104.623 217.31 104.834 216.801 105.209 216.426C105.584 216.051 106.092 215.84 106.623 215.84H110.093C110.623 215.84 111.132 216.051 111.507 216.426C111.882 216.801 112.093 217.31 112.093 217.84C112.093 218.371 111.882 218.879 111.507 219.254C111.132 219.629 110.623 219.84 110.093 219.84H106.623ZM78.0029 219.14C77.4725 219.14 76.9638 218.929 76.5887 218.554C76.2136 218.179 76.0029 217.671 76.0029 217.14C76.0029 216.61 76.2136 216.101 76.5887 215.726C76.9638 215.351 77.4725 215.14 78.0029 215.14H96.6929C97.2234 215.14 97.7321 215.351 98.1071 215.726C98.4822 216.101 98.6929 216.61 98.6929 217.14C98.6929 217.671 98.4822 218.179 98.1071 218.554C97.7321 218.929 97.2234 219.14 96.6929 219.14H78.0029Z" fill="#C7A9CD"/>
<path d="M369.743 216.48C369.213 216.479 368.705 216.268 368.33 215.893C367.955 215.518 367.744 215.01 367.743 214.48C367.743 213.95 367.954 213.441 368.329 213.066C368.704 212.691 369.213 212.48 369.743 212.48H386.743C387.273 212.48 387.782 212.691 388.157 213.066C388.532 213.441 388.743 213.95 388.743 214.48C388.743 215.01 388.532 215.519 388.157 215.894C387.782 216.269 387.273 216.48 386.743 216.48H369.743ZM395.733 216.05C395.203 216.049 394.695 215.838 394.32 215.463C393.945 215.088 393.734 214.58 393.733 214.05C393.733 213.52 393.944 213.011 394.319 212.636C394.694 212.261 395.203 212.05 395.733 212.05H402.003C402.533 212.05 403.042 212.261 403.417 212.636C403.792 213.011 404.003 213.52 404.003 214.05C404.003 214.58 403.792 215.089 403.417 215.464C403.042 215.839 402.533 216.05 402.003 216.05H395.733ZM117.333 216.06C116.803 216.06 116.294 215.849 115.919 215.474C115.544 215.099 115.333 214.59 115.333 214.06C115.333 213.53 115.544 213.021 115.919 212.646C116.294 212.271 116.803 212.06 117.333 212.06C168.593 212.06 220.543 212.21 270.783 212.31C300.856 212.37 330.936 212.423 361.023 212.47C361.553 212.47 362.062 212.681 362.437 213.056C362.812 213.431 363.023 213.94 363.023 214.47C363.023 215 362.812 215.509 362.437 215.884C362.062 216.259 361.553 216.47 361.023 216.47C330.916 216.43 300.833 216.377 270.773 216.31C220.533 216.21 168.593 216.1 117.333 216.06ZM104.133 216.05C103.865 216.059 103.598 216.013 103.348 215.916C103.098 215.82 102.87 215.674 102.677 215.487C102.485 215.301 102.332 215.077 102.227 214.83C102.123 214.584 102.069 214.318 102.069 214.05C102.069 213.782 102.123 213.517 102.227 213.27C102.332 213.023 102.485 212.799 102.677 212.613C102.87 212.426 103.098 212.28 103.348 212.184C103.598 212.087 103.865 212.042 104.133 212.05H107.613C108.143 212.05 108.652 212.261 109.027 212.636C109.402 213.011 109.613 213.52 109.613 214.05C109.613 214.58 109.402 215.089 109.027 215.464C108.652 215.839 108.143 216.05 107.613 216.05H104.133ZM75.513 216.01C75.2503 216.014 74.9893 215.967 74.745 215.87C74.5007 215.773 74.2779 215.629 74.0893 215.446C73.9008 215.263 73.7502 215.045 73.6461 214.803C73.5421 214.562 73.4866 214.303 73.483 214.04C73.4755 213.51 73.6787 212.998 74.0481 212.618C74.4174 212.237 74.9227 212.018 75.453 212.01C81.673 211.81 87.653 211.82 94.273 212.01C94.8034 212.027 95.3053 212.255 95.6682 212.642C96.031 213.029 96.2252 213.545 96.208 214.075C96.1907 214.605 95.9635 215.107 95.5762 215.47C95.189 215.833 94.6734 216.027 94.143 216.01C87.603 215.79 81.713 215.78 75.583 216.01H75.513Z" fill="#4B344D"/>
</g>
</svg>
